<svg id="eng7krmS51K1" xmlns="http://www.w3.org/2000/svg" xmlns:xlink="http://www.w3.org/1999/xlink" viewBox="0 0 771 589" shape-rendering="geometricPrecision" text-rendering="geometricPrecision" project-id="06de208de1ee433f970ddb8a764dbac9" export-id="b42855d3b3684d9d81609553a033fa22" cached="false">
<style><![CDATA[
#eng7krmS51K11_to {animation: eng7krmS51K11_to__to 6000ms linear infinite normal forwards}@keyframes eng7krmS51K11_to__to { 0% {transform: translate(237.634995px,193.042503px)} 25% {transform: translate(235.634995px,193.042503px)} 50% {transform: translate(237.634995px,193.042503px)} 75% {transform: translate(235.634995px,193.042503px)} 100% {transform: translate(237.634995px,193.042503px)}} #eng7krmS51K12_to {animation: eng7krmS51K12_to__to 6000ms linear infinite normal forwards}@keyframes eng7krmS51K12_to__to { 0% {transform: translate(257.456009px,206.540497px)} 25% {transform: translate(255.456009px,206.540497px)} 50% {transform: translate(257.456009px,206.540497px)} 75% {transform: translate(255.456009px,206.540497px)} 100% {transform: translate(257.456009px,206.540497px)}} #eng7krmS51K14_to {animation: eng7krmS51K14_to__to 6000ms linear infinite normal forwards}@keyframes eng7krmS51K14_to__to { 0% {transform: translate(182.341995px,285.136215px)} 25% {transform: translate(180.341995px,285.136215px)} 50% {transform: translate(182.341995px,285.136215px)} 75% {transform: translate(180.341995px,285.136215px)} 100% {transform: translate(182.34px,285.136215px)}} #eng7krmS51K15_to {animation: eng7krmS51K15_to__to 6000ms linear infinite normal forwards}@keyframes eng7krmS51K15_to__to { 0% {transform: translate(156.611px,266.875061px)} 25% {transform: translate(158.611px,266.875061px)} 50% {transform: translate(156.611px,266.875061px)} 75% {transform: translate(158.611px,266.875061px)} 100% {transform: translate(156.611px,266.875061px)}} #eng7krmS51K18_to {animation: eng7krmS51K18_to__to 6000ms linear infinite normal forwards}@keyframes eng7krmS51K18_to__to { 0% {transform: translate(167.000999px,250.620491px)} 25% {transform: translate(169.000999px,250.620491px)} 50% {transform: translate(167.000999px,250.620491px)} 75% {transform: translate(169.000999px,250.620491px)} 100% {transform: translate(167.000999px,250.620491px)}} #eng7krmS51K19_to {animation: eng7krmS51K19_to__to 6000ms linear infinite normal forwards}@keyframes eng7krmS51K19_to__to { 0% {transform: translate(142.340996px,314.713486px)} 25% {transform: translate(142.340996px,312.713486px)} 50% {transform: translate(142.340996px,314.713486px)} 75% {transform: translate(142.340996px,312.713486px)} 100% {transform: translate(142.340996px,314.713486px)}} #eng7krmS51K20_to {animation: eng7krmS51K20_to__to 6000ms linear infinite normal forwards}@keyframes eng7krmS51K20_to__to { 0% {transform: translate(166.443497px,289.494003px)} 25% {transform: translate(168.443497px,289.494003px)} 50% {transform: translate(166.443497px,289.494003px)} 73.333333% {transform: translate(168.443497px,289.494003px)} 100% {transform: translate(166.443497px,289.494003px)}} #eng7krmS51K21_to {animation: eng7krmS51K21_to__to 6000ms linear infinite normal forwards}@keyframes eng7krmS51K21_to__to { 0% {transform: translate(270.341003px,221.362px)} 25% {transform: translate(272.341003px,221.362px)} 50% {transform: translate(270.341003px,221.362px)} 76.666667% {transform: translate(272.341003px,221.362px)} 100% {transform: translate(270.341003px,221.362px)}} #eng7krmS51K24_tr {animation: eng7krmS51K24_tr__tr 6000ms linear infinite normal forwards}@keyframes eng7krmS51K24_tr__tr { 0% {transform: translate(245.689px,217.486465px) rotate(0deg)} 25% {transform: translate(245.689px,217.486465px) rotate(10deg)} 50% {transform: translate(245.689px,217.486465px) rotate(0deg)} 75% {transform: translate(245.689px,217.486465px) rotate(-10deg)} 100% {transform: translate(245.689px,217.486465px) rotate(0deg)}} #eng7krmS51K25_to {animation: eng7krmS51K25_to__to 6000ms linear infinite normal forwards}@keyframes eng7krmS51K25_to__to { 0% {transform: translate(143.009499px,286.4095px)} 25% {transform: translate(141.009499px,286.4095px)} 50% {transform: translate(143.009499px,286.4095px)} 75% {transform: translate(141.009499px,286.4095px)} 100% {transform: translate(143.009499px,286.4095px)}} #eng7krmS51K26_to {animation: eng7krmS51K26_to__to 6000ms linear infinite normal forwards}@keyframes eng7krmS51K26_to__to { 0% {transform: translate(124.826px,303.433792px)} 25% {transform: translate(124.826px,304.433792px)} 50% {transform: translate(124.826px,303.433792px)} 75% {transform: translate(124.826px,304.433792px)} 100% {transform: translate(124.826px,303.433792px)}} #eng7krmS51K27_tr {animation: eng7krmS51K27_tr__tr 6000ms linear infinite normal forwards}@keyframes eng7krmS51K27_tr__tr { 0% {transform: translate(213.223px,265.708588px) rotate(0deg)} 25% {transform: translate(213.223px,265.708588px) rotate(5deg)} 50% {transform: translate(213.223px,265.708588px) rotate(0deg)} 75% {transform: translate(213.223px,265.708588px) rotate(-5deg)} 100% {transform: translate(213.223px,265.708588px) rotate(0deg)}} #eng7krmS51K28_to {animation: eng7krmS51K28_to__to 6000ms linear infinite normal forwards}@keyframes eng7krmS51K28_to__to { 0% {transform: translate(151.965004px,314.83078px)} 25% {transform: translate(151.965004px,316.83078px)} 50% {transform: translate(151.965004px,314.83078px)} 75% {transform: translate(151.965004px,316.83078px)} 100% {transform: translate(151.965004px,314.83078px)}} #eng7krmS51K29_to {animation: eng7krmS51K29_to__to 6000ms linear infinite normal forwards}@keyframes eng7krmS51K29_to__to { 0% {transform: translate(193.387996px,261.575364px)} 25% {transform: translate(193.387996px,263.575364px)} 50% {transform: translate(193.387996px,261.575364px)} 75% {transform: translate(193.387996px,263.575364px)} 100% {transform: translate(193.387996px,261.575364px)}} #eng7krmS51K30_to {animation: eng7krmS51K30_to__to 6000ms linear infinite normal forwards}@keyframes eng7krmS51K30_to__to { 0% {transform: translate(207.156502px,219.361511px)} 25% {transform: translate(209.156502px,219.361511px)} 50% {transform: translate(207.156502px,219.361511px)} 75% {transform: translate(209.156502px,219.361511px)} 100% {transform: translate(207.156502px,219.361511px)}} #eng7krmS51K31_tr {animation: eng7krmS51K31_tr__tr 6000ms linear infinite normal forwards}@keyframes eng7krmS51K31_tr__tr { 0% {transform: translate(188.893501px,224.249496px) rotate(0deg)} 25% {transform: translate(188.893501px,224.249496px) rotate(5deg)} 50% {transform: translate(188.893501px,224.249496px) rotate(0deg)} 75% {transform: translate(188.893501px,224.249496px) rotate(-5deg)} 100% {transform: translate(188.893501px,224.249496px) rotate(0deg)}} #eng7krmS51K32_to {animation: eng7krmS51K32_to__to 6000ms linear infinite normal forwards}@keyframes eng7krmS51K32_to__to { 0% {transform: translate(204.683998px,198.874001px)} 25% {transform: translate(204.683998px,200.874001px)} 50% {transform: translate(204.683998px,198.874001px)} 75% {transform: translate(204.683998px,200.874001px)} 100% {transform: translate(204.683998px,198.874001px)}} #eng7krmS51K33_to {animation: eng7krmS51K33_to__to 6000ms linear infinite normal forwards}@keyframes eng7krmS51K33_to__to { 0% {transform: translate(116.961502px,300.633774px)} 25% {transform: translate(116.961502px,298.633774px)} 50% {transform: translate(116.961502px,300.633774px)} 75% {transform: translate(116.961502px,298.633774px)} 100% {transform: translate(116.961502px,300.633774px)}} #eng7krmS51K34_to {animation: eng7krmS51K34_to__to 6000ms linear infinite normal forwards}@keyframes eng7krmS51K34_to__to { 0% {transform: translate(259.301498px,176.997002px)} 25% {transform: translate(259.301498px,174.997002px)} 50% {transform: translate(259.301498px,176.997002px)} 75% {transform: translate(259.301498px,174.997002px)} 100% {transform: translate(259.301498px,176.997002px)}} #eng7krmS51K35_to {animation: eng7krmS51K35_to__to 6000ms linear infinite normal forwards}@keyframes eng7krmS51K35_to__to { 0% {transform: translate(118.9105px,328.731995px)} 25% {transform: translate(118.9105px,330.731995px)} 50% {transform: translate(118.9105px,328.731995px)} 75% {transform: translate(118.9105px,330.731995px)} 100% {transform: translate(118.9105px,328.731995px)}} #eng7krmS51K36_to {animation: eng7krmS51K36_to__to 6000ms linear infinite normal forwards}@keyframes eng7krmS51K36_to__to { 0% {transform: translate(282.815994px,232.282997px)} 25% {transform: translate(280.815994px,232.282997px)} 50% {transform: translate(278.815994px,232.282997px)} 75% {transform: translate(280.815994px,232.282997px)} 100% {transform: translate(282.82px,232.282997px)}} #eng7krmS51K37_tr {animation: eng7krmS51K37_tr__tr 6000ms linear infinite normal forwards}@keyframes eng7krmS51K37_tr__tr { 0% {transform: translate(286.356003px,201.920784px) rotate(0deg)} 23.333333% {transform: translate(286.356003px,201.920784px) rotate(5deg)} 50% {transform: translate(286.356003px,201.920784px) rotate(0deg)} 75% {transform: translate(286.356003px,201.920784px) rotate(-5deg)} 100% {transform: translate(286.356003px,201.920784px) rotate(0deg)}} #eng7krmS51K63 {animation: eng7krmS51K63_c_o 6000ms linear infinite normal forwards}@keyframes eng7krmS51K63_c_o { 0% {opacity: 0.8} 25% {opacity: 0} 50% {opacity: 1} 75% {opacity: 0} 100% {opacity: 1}} #eng7krmS51K68 {animation: eng7krmS51K68_c_o 6000ms linear infinite normal forwards}@keyframes eng7krmS51K68_c_o { 0% {opacity: 1} 25% {opacity: 0} 50% {opacity: 1} 75% {opacity: 0} 100% {opacity: 1}} #eng7krmS51K76 {animation: eng7krmS51K76_c_o 6000ms linear infinite normal forwards}@keyframes eng7krmS51K76_c_o { 0% {opacity: 1} 25% {opacity: 0} 50% {opacity: 1} 75% {opacity: 0} 100% {opacity: 1}} #eng7krmS51K79 {animation: eng7krmS51K79_c_o 6000ms linear infinite normal forwards}@keyframes eng7krmS51K79_c_o { 0% {opacity: 1} 25% {opacity: 0} 50% {opacity: 1} 75% {opacity: 0} 100% {opacity: 1}} #eng7krmS51K81 {animation: eng7krmS51K81_c_o 6000ms linear infinite normal forwards}@keyframes eng7krmS51K81_c_o { 0% {opacity: 0.8} 25% {opacity: 0} 50% {opacity: 1} 75% {opacity: 0} 100% {opacity: 1}} #eng7krmS51K82 {animation: eng7krmS51K82_c_o 6000ms linear infinite normal forwards}@keyframes eng7krmS51K82_c_o { 0% {opacity: 1} 25% {opacity: 0} 50% {opacity: 1} 75% {opacity: 0} 100% {opacity: 1}} #eng7krmS51K88 {animation: eng7krmS51K88_c_o 6000ms linear infinite normal forwards}@keyframes eng7krmS51K88_c_o { 0% {opacity: 1} 25% {opacity: 0} 50% {opacity: 1} 75% {opacity: 0} 100% {opacity: 1}} #eng7krmS51K91 {animation: eng7krmS51K91_c_o 6000ms linear infinite normal forwards}@keyframes eng7krmS51K91_c_o { 0% {opacity: 1} 25% {opacity: 0} 50% {opacity: 1} 75% {opacity: 0} 100% {opacity: 1}} #eng7krmS51K96 {animation: eng7krmS51K96_c_o 6000ms linear infinite normal forwards}@keyframes eng7krmS51K96_c_o { 0% {opacity: 1} 25% {opacity: 0} 50% {opacity: 1} 75% {opacity: 0} 100% {opacity: 1}} #eng7krmS51K99 {animation: eng7krmS51K99_c_o 6000ms linear infinite normal forwards}@keyframes eng7krmS51K99_c_o { 0% {opacity: 1} 25% {opacity: 0} 50% {opacity: 1} 75% {opacity: 0} 100% {opacity: 1}} #eng7krmS51K118 {animation: eng7krmS51K118_c_o 6000ms linear infinite normal forwards}@keyframes eng7krmS51K118_c_o { 0% {opacity: 0.3} 41.666667% {opacity: 0.8} 100% {opacity: 0.3}} #eng7krmS51K127 {animation: eng7krmS51K127_c_o 6000ms linear infinite normal forwards}@keyframes eng7krmS51K127_c_o { 0% {opacity: 1} 25% {opacity: 0} 50% {opacity: 1} 75% {opacity: 0} 100% {opacity: 1}} #eng7krmS51K136 {animation: eng7krmS51K136_c_o 6000ms linear infinite normal forwards}@keyframes eng7krmS51K136_c_o { 0% {opacity: 1} 25% {opacity: 0} 50% {opacity: 1} 75% {opacity: 0} 100% {opacity: 1}} #eng7krmS51K145 {animation: eng7krmS51K145_c_o 6000ms linear infinite normal forwards}@keyframes eng7krmS51K145_c_o { 0% {opacity: 1} 25% {opacity: 0} 50% {opacity: 1} 75% {opacity: 0} 100% {opacity: 1}} #eng7krmS51K158 {animation: eng7krmS51K158_c_o 6000ms linear infinite normal forwards}@keyframes eng7krmS51K158_c_o { 0% {opacity: 1} 25% {opacity: 0} 50% {opacity: 1} 75% {opacity: 0} 100% {opacity: 1}} #eng7krmS51K177 {animation: eng7krmS51K177_c_o 6000ms linear infinite normal forwards}@keyframes eng7krmS51K177_c_o { 0% {opacity: 0.3} 50% {opacity: 0.5} 100% {opacity: 0.3}} #eng7krmS51K179 {animation: eng7krmS51K179_c_o 6000ms linear infinite normal forwards}@keyframes eng7krmS51K179_c_o { 0% {opacity: 1} 25% {opacity: 0} 50% {opacity: 1} 75% {opacity: 0} 100% {opacity: 1}} #eng7krmS51K181 {animation: eng7krmS51K181_c_o 6000ms linear infinite normal forwards}@keyframes eng7krmS51K181_c_o { 0% {opacity: 0.8} 25% {opacity: 0} 50% {opacity: 1} 75% {opacity: 0} 100% {opacity: 1}} #eng7krmS51K183 {animation: eng7krmS51K183_c_o 6000ms linear infinite normal forwards}@keyframes eng7krmS51K183_c_o { 0% {opacity: 1} 25% {opacity: 0} 50% {opacity: 1} 75% {opacity: 0} 100% {opacity: 1}} #eng7krmS51K188 {animation: eng7krmS51K188_c_o 6000ms linear infinite normal forwards}@keyframes eng7krmS51K188_c_o { 0% {opacity: 1} 16.666667% {opacity: 0} 33.333333% {opacity: 1} 100% {opacity: 1}} #eng7krmS51K197 {animation: eng7krmS51K197_c_o 6000ms linear infinite normal forwards}@keyframes eng7krmS51K197_c_o { 0% {opacity: 1} 25% {opacity: 0} 50% {opacity: 1} 75% {opacity: 0} 100% {opacity: 1}} #eng7krmS51K253 {animation: eng7krmS51K253_c_o 6000ms linear infinite normal forwards}@keyframes eng7krmS51K253_c_o { 0% {opacity: 1} 75% {opacity: 1} 86.666667% {opacity: 0} 100% {opacity: 1}} #eng7krmS51K254 {animation: eng7krmS51K254_c_o 6000ms linear infinite normal forwards}@keyframes eng7krmS51K254_c_o { 0% {opacity: 1} 70% {opacity: 1} 83.333333% {opacity: 0} 95% {opacity: 1} 100% {opacity: 1}} #eng7krmS51K255 {animation: eng7krmS51K255_c_o 6000ms linear infinite normal forwards}@keyframes eng7krmS51K255_c_o { 0% {opacity: 1} 63.333333% {opacity: 1} 80% {opacity: 0} 96.666667% {opacity: 1} 100% {opacity: 1}} #eng7krmS51K257 {animation: eng7krmS51K257_c_o 6000ms linear infinite normal forwards}@keyframes eng7krmS51K257_c_o { 0% {opacity: 1} 75% {opacity: 1} 88.333333% {opacity: 0} 100% {opacity: 1}} #eng7krmS51K259 {animation: eng7krmS51K259_c_o 6000ms linear infinite normal forwards}@keyframes eng7krmS51K259_c_o { 0% {opacity: 1} 75% {opacity: 1} 88.333333% {opacity: 0} 100% {opacity: 1}} #eng7krmS51K262 {animation: eng7krmS51K262_c_o 6000ms linear infinite normal forwards}@keyframes eng7krmS51K262_c_o { 0% {opacity: 1} 75% {opacity: 1} 88.333333% {opacity: 0} 100% {opacity: 1}} #eng7krmS51K263 {animation: eng7krmS51K263_c_o 6000ms linear infinite normal forwards}@keyframes eng7krmS51K263_c_o { 0% {opacity: 1} 66.666667% {opacity: 1} 83.333333% {opacity: 0} 100% {opacity: 1}} #eng7krmS51K265 {animation: eng7krmS51K265_c_o 6000ms linear infinite normal forwards}@keyframes eng7krmS51K265_c_o { 0% {opacity: 1} 66.666667% {opacity: 1} 83.333333% {opacity: 0} 100% {opacity: 1}} #eng7krmS51K267 {animation: eng7krmS51K267_c_o 6000ms linear infinite normal forwards}@keyframes eng7krmS51K267_c_o { 0% {opacity: 1} 58.333333% {opacity: 1} 75% {opacity: 0} 91.666667% {opacity: 1} 100% {opacity: 1}} #eng7krmS51K268 {animation: eng7krmS51K268_c_o 6000ms linear infinite normal forwards}@keyframes eng7krmS51K268_c_o { 0% {opacity: 1} 50% {opacity: 1} 66.666667% {opacity: 0} 83.333333% {opacity: 1} 100% {opacity: 1}} #eng7krmS51K271 {animation: eng7krmS51K271_c_o 6000ms linear infinite normal forwards}@keyframes eng7krmS51K271_c_o { 0% {opacity: 1} 66.666667% {opacity: 1} 83.333333% {opacity: 0} 100% {opacity: 1}} #eng7krmS51K275 {animation: eng7krmS51K275_c_o 6000ms linear infinite normal forwards}@keyframes eng7krmS51K275_c_o { 0% {opacity: 1} 58.333333% {opacity: 1} 75% {opacity: 0} 91.666667% {opacity: 1} 100% {opacity: 1}} #eng7krmS51K276 {animation: eng7krmS51K276_c_o 6000ms linear infinite normal forwards}@keyframes eng7krmS51K276_c_o { 0% {opacity: 1} 58.333333% {opacity: 1} 71.666667% {opacity: 0} 83.333333% {opacity: 1} 100% {opacity: 1}} #eng7krmS51K277 {animation: eng7krmS51K277_c_o 6000ms linear infinite normal forwards}@keyframes eng7krmS51K277_c_o { 0% {opacity: 1} 66.666667% {opacity: 1} 83.333333% {opacity: 0} 98.333333% {opacity: 1} 100% {opacity: 1}} #eng7krmS51K278 {animation: eng7krmS51K278_c_o 6000ms linear infinite normal forwards}@keyframes eng7krmS51K278_c_o { 0% {opacity: 1} 66.666667% {opacity: 1} 83.333333% {opacity: 0} 100% {opacity: 1}} #eng7krmS51K279 {animation: eng7krmS51K279_c_o 6000ms linear infinite normal forwards}@keyframes eng7krmS51K279_c_o { 0% {opacity: 1} 75% {opacity: 1} 86.666667% {opacity: 0} 98.333333% {opacity: 1} 100% {opacity: 1}} #eng7krmS51K280 {animation: eng7krmS51K280_c_o 6000ms linear infinite normal forwards}@keyframes eng7krmS51K280_c_o { 0% {opacity: 1} 66.666667% {opacity: 1} 80% {opacity: 0} 91.666667% {opacity: 1} 100% {opacity: 1}} #eng7krmS51K283 {animation: eng7krmS51K283_c_o 6000ms linear infinite normal forwards}@keyframes eng7krmS51K283_c_o { 0% {opacity: 1} 53.333333% {opacity: 1} 70% {opacity: 0} 86.666667% {opacity: 1} 100% {opacity: 1}} #eng7krmS51K285 {animation: eng7krmS51K285_c_o 6000ms linear infinite normal forwards}@keyframes eng7krmS51K285_c_o { 0% {opacity: 1} 58.333333% {opacity: 1} 75% {opacity: 0} 91.666667% {opacity: 1} 100% {opacity: 1}} #eng7krmS51K286 {animation: eng7krmS51K286_c_o 6000ms linear infinite normal forwards}@keyframes eng7krmS51K286_c_o { 0% {opacity: 1} 65% {opacity: 1} 81.666667% {opacity: 0} 98.333333% {opacity: 1} 100% {opacity: 1}} #eng7krmS51K288 {animation: eng7krmS51K288_c_o 6000ms linear infinite normal forwards}@keyframes eng7krmS51K288_c_o { 0% {opacity: 1} 50% {opacity: 1} 66.666667% {opacity: 0} 83.333333% {opacity: 1} 100% {opacity: 1}} #eng7krmS51K290 {animation: eng7krmS51K290_c_o 6000ms linear infinite normal forwards}@keyframes eng7krmS51K290_c_o { 0% {opacity: 1} 61.666667% {opacity: 1} 75% {opacity: 0} 86.666667% {opacity: 1} 100% {opacity: 1}} #eng7krmS51K291 {animation: eng7krmS51K291_c_o 6000ms linear infinite normal forwards}@keyframes eng7krmS51K291_c_o { 0% {opacity: 1} 58.333333% {opacity: 1} 75% {opacity: 0} 91.666667% {opacity: 1} 100% {opacity: 1}} #eng7krmS51K292 {animation: eng7krmS51K292_c_o 6000ms linear infinite normal forwards}@keyframes eng7krmS51K292_c_o { 0% {opacity: 1} 83.333333% {opacity: 1} 91.666667% {opacity: 0} 100% {opacity: 1}} #eng7krmS51K293 {animation: eng7krmS51K293_c_o 6000ms linear infinite normal forwards}@keyframes eng7krmS51K293_c_o { 0% {opacity: 1} 58.333333% {opacity: 1} 75% {opacity: 0} 91.666667% {opacity: 1} 100% {opacity: 1}} #eng7krmS51K297 {animation: eng7krmS51K297_c_o 6000ms linear infinite normal forwards}@keyframes eng7krmS51K297_c_o { 0% {opacity: 1} 66.666667% {opacity: 1} 80% {opacity: 0} 91.666667% {opacity: 1} 100% {opacity: 1}} #eng7krmS51K298 {animation: eng7krmS51K298_c_o 6000ms linear infinite normal forwards}@keyframes eng7krmS51K298_c_o { 0% {opacity: 1} 58.333333% {opacity: 1} 71.666667% {opacity: 0} 83.333333% {opacity: 1} 100% {opacity: 1}} #eng7krmS51K299 {animation: eng7krmS51K299_c_o 6000ms linear infinite normal forwards}@keyframes eng7krmS51K299_c_o { 0% {opacity: 1} 49.666667% {opacity: 1} 63% {opacity: 0} 74.666667% {opacity: 1} 100% {opacity: 1}} #eng7krmS51K300 {animation: eng7krmS51K300_c_o 6000ms linear infinite normal forwards}@keyframes eng7krmS51K300_c_o { 0% {opacity: 1} 58.333333% {opacity: 1} 71.666667% {opacity: 0} 83.333333% {opacity: 1} 100% {opacity: 1}} #eng7krmS51K301 {animation: eng7krmS51K301_c_o 6000ms linear infinite normal forwards}@keyframes eng7krmS51K301_c_o { 0% {opacity: 1} 66.666667% {opacity: 1} 80% {opacity: 0} 91.666667% {opacity: 1} 100% {opacity: 1}} #eng7krmS51K302 {animation: eng7krmS51K302_c_o 6000ms linear infinite normal forwards}@keyframes eng7krmS51K302_c_o { 0% {opacity: 1} 75% {opacity: 1} 88.333333% {opacity: 0} 100% {opacity: 1}} #eng7krmS51K325 {animation: eng7krmS51K325_c_o 6000ms linear infinite normal forwards}@keyframes eng7krmS51K325_c_o { 0% {opacity: 1} 45% {opacity: 1} 50% {opacity: 0.7} 91.666667% {opacity: 1} 100% {opacity: 0}} #eng7krmS51K326 {animation: eng7krmS51K326_c_o 6000ms linear infinite normal forwards}@keyframes eng7krmS51K326_c_o { 0% {opacity: 0} 38.333333% {opacity: 0} 46.666667% {opacity: 1} 90% {opacity: 0} 98.333333% {opacity: 1} 100% {opacity: 1}} #eng7krmS51K327 {animation: eng7krmS51K327_c_o 6000ms linear infinite normal forwards}@keyframes eng7krmS51K327_c_o { 0% {opacity: 0} 33.333333% {opacity: 0} 41.666667% {opacity: 1} 85% {opacity: 0} 93.333333% {opacity: 1} 100% {opacity: 1}} #eng7krmS51K328 {animation: eng7krmS51K328_c_o 6000ms linear infinite normal forwards}@keyframes eng7krmS51K328_c_o { 0% {opacity: 0} 30% {opacity: 0} 38.333333% {opacity: 1} 80% {opacity: 0} 88.333333% {opacity: 1} 100% {opacity: 1}} #eng7krmS51K329 {animation: eng7krmS51K329_c_o 6000ms linear infinite normal forwards}@keyframes eng7krmS51K329_c_o { 0% {opacity: 0} 25% {opacity: 0} 33.333333% {opacity: 1} 75% {opacity: 0} 83.333333% {opacity: 1} 100% {opacity: 1}} #eng7krmS51K330 {animation: eng7krmS51K330_c_o 6000ms linear infinite normal forwards}@keyframes eng7krmS51K330_c_o { 0% {opacity: 0} 21.666667% {opacity: 0} 30% {opacity: 1} 70% {opacity: 0} 78.333333% {opacity: 1} 100% {opacity: 1}} #eng7krmS51K331 {animation: eng7krmS51K331_c_o 6000ms linear infinite normal forwards}@keyframes eng7krmS51K331_c_o { 0% {opacity: 0} 16.666667% {opacity: 0} 25% {opacity: 1} 65% {opacity: 0} 73.333333% {opacity: 1} 100% {opacity: 1}} #eng7krmS51K332 {animation: eng7krmS51K332_c_o 6000ms linear infinite normal forwards}@keyframes eng7krmS51K332_c_o { 0% {opacity: 0} 13.333333% {opacity: 0} 21.666667% {opacity: 1} 60% {opacity: 0} 68.333333% {opacity: 1} 100% {opacity: 1}} #eng7krmS51K333 {animation: eng7krmS51K333_c_o 6000ms linear infinite normal forwards}@keyframes eng7krmS51K333_c_o { 0% {opacity: 0} 8.333333% {opacity: 0} 16.666667% {opacity: 1} 55% {opacity: 0} 63.333333% {opacity: 1} 100% {opacity: 1}} #eng7krmS51K334 {animation: eng7krmS51K334_c_o 6000ms linear infinite normal forwards}@keyframes eng7krmS51K334_c_o { 0% {opacity: 0} 5% {opacity: 0} 13.333333% {opacity: 1} 50% {opacity: 0} 58.333333% {opacity: 1} 100% {opacity: 1}} #eng7krmS51K335 {animation: eng7krmS51K335_c_o 6000ms linear infinite normal forwards}@keyframes eng7krmS51K335_c_o { 0% {opacity: 1} 41.666667% {opacity: 1} 50% {opacity: 0.5} 88.333333% {opacity: 1} 100% {opacity: 0}} #eng7krmS51K336 {animation: eng7krmS51K336_c_o 6000ms linear infinite normal forwards}@keyframes eng7krmS51K336_c_o { 0% {opacity: 0} 33.333333% {opacity: 0} 41.666667% {opacity: 1} 83.333333% {opacity: 0} 91.666667% {opacity: 1} 100% {opacity: 1}} #eng7krmS51K337 {animation: eng7krmS51K337_c_o 6000ms linear infinite normal forwards}@keyframes eng7krmS51K337_c_o { 0% {opacity: 0} 30% {opacity: 0} 38.333333% {opacity: 1} 80% {opacity: 0} 88.333333% {opacity: 1} 100% {opacity: 1}} #eng7krmS51K338 {animation: eng7krmS51K338_c_o 6000ms linear infinite normal forwards}@keyframes eng7krmS51K338_c_o { 0% {opacity: 0} 25% {opacity: 0} 33.333333% {opacity: 1} 75% {opacity: 0} 83.333333% {opacity: 1} 100% {opacity: 1}} #eng7krmS51K339 {animation: eng7krmS51K339_c_o 6000ms linear infinite normal forwards}@keyframes eng7krmS51K339_c_o { 0% {opacity: 0} 21.666667% {opacity: 0} 30% {opacity: 1} 71.666667% {opacity: 0} 80% {opacity: 1} 100% {opacity: 1}} #eng7krmS51K340 {animation: eng7krmS51K340_c_o 6000ms linear infinite normal forwards}@keyframes eng7krmS51K340_c_o { 0% {opacity: 0} 16.666667% {opacity: 0} 25% {opacity: 1} 66.666667% {opacity: 0} 75% {opacity: 1} 100% {opacity: 1}} #eng7krmS51K341 {animation: eng7krmS51K341_c_o 6000ms linear infinite normal forwards}@keyframes eng7krmS51K341_c_o { 0% {opacity: 0} 13.333333% {opacity: 0} 21.666667% {opacity: 1} 63.333333% {opacity: 0} 71.666667% {opacity: 1} 100% {opacity: 1}} #eng7krmS51K342 {animation: eng7krmS51K342_c_o 6000ms linear infinite normal forwards}@keyframes eng7krmS51K342_c_o { 0% {opacity: 0} 8.333333% {opacity: 0} 16.666667% {opacity: 1} 58.333333% {opacity: 0} 66.666667% {opacity: 1} 100% {opacity: 1}} #eng7krmS51K343 {animation: eng7krmS51K343_c_o 6000ms linear infinite normal forwards}@keyframes eng7krmS51K343_c_o { 0% {opacity: 0} 5% {opacity: 0} 13.333333% {opacity: 1} 55% {opacity: 0} 63.333333% {opacity: 1} 100% {opacity: 1}} #eng7krmS51K344 {animation: eng7krmS51K344_c_o 6000ms linear infinite normal forwards}@keyframes eng7krmS51K344_c_o { 0% {opacity: 0} 8.333333% {opacity: 1} 50% {opacity: 0} 58.333333% {opacity: 1} 100% {opacity: 1}} #eng7krmS51K345 {animation: eng7krmS51K345_c_o 6000ms linear infinite normal forwards}@keyframes eng7krmS51K345_c_o { 0% {opacity: 1} 45% {opacity: 1} 50% {opacity: 1} 91.666667% {opacity: 1} 100% {opacity: 0.5}} #eng7krmS51K346 {animation: eng7krmS51K346_c_o 6000ms linear infinite normal forwards}@keyframes eng7krmS51K346_c_o { 0% {opacity: 0} 33.333333% {opacity: 0} 41.666667% {opacity: 1} 80% {opacity: 0} 88.333333% {opacity: 1} 100% {opacity: 1}} #eng7krmS51K347 {animation: eng7krmS51K347_c_o 6000ms linear infinite normal forwards}@keyframes eng7krmS51K347_c_o { 0% {opacity: 0} 30% {opacity: 0} 38.333333% {opacity: 1} 73.333333% {opacity: 0} 81.666667% {opacity: 1} 100% {opacity: 1}} #eng7krmS51K348 {animation: eng7krmS51K348_c_o 6000ms linear infinite normal forwards}@keyframes eng7krmS51K348_c_o { 0% {opacity: 0} 25% {opacity: 0} 33.333333% {opacity: 1} 68.333333% {opacity: 0} 76.666667% {opacity: 1} 100% {opacity: 1}} #eng7krmS51K349 {animation: eng7krmS51K349_c_o 6000ms linear infinite normal forwards}@keyframes eng7krmS51K349_c_o { 0% {opacity: 0} 21.666667% {opacity: 0} 30% {opacity: 1} 63.333333% {opacity: 0} 71.666667% {opacity: 1} 100% {opacity: 1}} #eng7krmS51K350 {animation: eng7krmS51K350_c_o 6000ms linear infinite normal forwards}@keyframes eng7krmS51K350_c_o { 0% {opacity: 0} 16.666667% {opacity: 0} 25% {opacity: 1} 56.666667% {opacity: 0} 65% {opacity: 1} 100% {opacity: 1}} #eng7krmS51K351 {animation: eng7krmS51K351_c_o 6000ms linear infinite normal forwards}@keyframes eng7krmS51K351_c_o { 0% {opacity: 0} 13.333333% {opacity: 0} 21.666667% {opacity: 1} 48.333333% {opacity: 0} 56.666667% {opacity: 1} 100% {opacity: 1}} #eng7krmS51K352 {animation: eng7krmS51K352_c_o 6000ms linear infinite normal forwards}@keyframes eng7krmS51K352_c_o { 0% {opacity: 0} 8.333333% {opacity: 0} 16.666667% {opacity: 1} 41.666667% {opacity: 0} 50% {opacity: 1} 100% {opacity: 1}} #eng7krmS51K353 {animation: eng7krmS51K353_c_o 6000ms linear infinite normal forwards}@keyframes eng7krmS51K353_c_o { 0% {opacity: 0} 5% {opacity: 0} 13.333333% {opacity: 1} 33.333333% {opacity: 0} 41.666667% {opacity: 1} 100% {opacity: 1}} #eng7krmS51K354 {animation: eng7krmS51K354_c_o 6000ms linear infinite normal forwards}@keyframes eng7krmS51K354_c_o { 0% {opacity: 0} 8.333333% {opacity: 1} 25% {opacity: 0} 33.333333% {opacity: 1} 100% {opacity: 1}} #eng7krmS51K355_to {animation: eng7krmS51K355_to__to 6000ms linear infinite normal forwards}@keyframes eng7krmS51K355_to__to { 0% {offset-distance: 0%} 3.166667% {offset-distance: 4.712184%} 9.333333% {offset-distance: 17.318084%} 14.666667% {offset-distance: 27.969844%} 40% {offset-distance: 74.207591%} 50% {offset-distance: 100%} 100% {offset-distance: 100%}} #eng7krmS51K355 {animation: eng7krmS51K355_c_o 6000ms linear infinite normal forwards}@keyframes eng7krmS51K355_c_o { 0% {opacity: 0} 1.666667% {opacity: 1} 48.333333% {opacity: 1} 50% {opacity: 0} 100% {opacity: 0}} #eng7krmS51K356_to {animation: eng7krmS51K356_to__to 6000ms linear infinite normal forwards}@keyframes eng7krmS51K356_to__to { 0% {offset-distance: 0%} 0.333333% {offset-distance: 0%} 4.333333% {offset-distance: 8.028853%} 9% {offset-distance: 17.332739%} 11.333333% {offset-distance: 22.033493%} 17.833333% {offset-distance: 34.856663%} 23.333333% {offset-distance: 46.135597%} 40.5% {offset-distance: 80.49338%} 50.333333% {offset-distance: 100%} 100% {offset-distance: 100%}} #eng7krmS51K356 {animation: eng7krmS51K356_c_o 6000ms linear infinite normal forwards}@keyframes eng7krmS51K356_c_o { 0% {opacity: 1} 48.333333% {opacity: 1} 50% {opacity: 0} 100% {opacity: 0}} #eng7krmS51K357_to {animation: eng7krmS51K357_to__to 6000ms linear infinite normal forwards}@keyframes eng7krmS51K357_to__to { 0% {offset-distance: 0%} 50% {offset-distance: 0%} 58.333333% {offset-distance: 38.76382%} 66.666667% {offset-distance: 74.968586%} 73.333333% {offset-distance: 88.764632%} 78.333333% {offset-distance: 100%} 100% {offset-distance: 100%}} #eng7krmS51K357 {animation: eng7krmS51K357_c_o 6000ms linear infinite normal forwards}@keyframes eng7krmS51K357_c_o { 0% {opacity: 0} 50% {opacity: 0} 51.666667% {opacity: 1} 78.333333% {opacity: 1} 80% {opacity: 0} 100% {opacity: 0}} #eng7krmS51K358_to {animation: eng7krmS51K358_to__to 6000ms linear infinite normal forwards}@keyframes eng7krmS51K358_to__to { 0% {offset-distance: 0%} 50% {offset-distance: 0%} 58.333333% {offset-distance: 16.521086%} 77.333333% {offset-distance: 54.736324%} 82.666667% {offset-distance: 65.484947%} 93.166667% {offset-distance: 86.250768%} 96.5% {offset-distance: 92.885271%} 100% {offset-distance: 100%}} #eng7krmS51K358_ts {animation: eng7krmS51K358_ts__ts 6000ms linear infinite normal forwards}@keyframes eng7krmS51K358_ts__ts { 0% {transform: scale(1.556781,1.556781)} 85% {transform: scale(1.556781,1.556781)} 86.666667% {transform: scale(1,1)} 100% {transform: scale(1,1)}} #eng7krmS51K358 {animation: eng7krmS51K358_c_o 6000ms linear infinite normal forwards}@keyframes eng7krmS51K358_c_o { 0% {opacity: 0} 50% {opacity: 0} 51.666667% {opacity: 1} 100% {opacity: 1}} #eng7krmS51K359_to {animation: eng7krmS51K359_to__to 6000ms linear infinite normal forwards}@keyframes eng7krmS51K359_to__to { 0% {offset-distance: 0%} 50% {offset-distance: 0%} 57.333333% {offset-distance: 14.656843%} 84.166667% {offset-distance: 68.443093%} 90.666667% {offset-distance: 81.254891%} 100% {offset-distance: 100%}} #eng7krmS51K359 {animation: eng7krmS51K359_c_o 6000ms linear infinite normal forwards}@keyframes eng7krmS51K359_c_o { 0% {opacity: 0} 50% {opacity: 0} 51.666667% {opacity: 1} 100% {opacity: 1}} #eng7krmS51K360_to {animation: eng7krmS51K360_to__to 6000ms linear infinite normal forwards}@keyframes eng7krmS51K360_to__to { 0% {offset-distance: 0%} 78.333333% {offset-distance: 0%} 91.666667% {offset-distance: 75.973813%} 96.666667% {offset-distance: 96.299401%} 100% {offset-distance: 100%}} #eng7krmS51K360 {animation: eng7krmS51K360_c_o 6000ms linear infinite normal forwards}@keyframes eng7krmS51K360_c_o { 0% {opacity: 0} 76.666667% {opacity: 0} 78.333333% {opacity: 1} 100% {opacity: 1}}
]]></style>
<defs><linearGradient id="eng7krmS51K9-fill" x1="200.25" y1="146.398" x2="-39.6306" y2="387.425" spreadMethod="pad" gradientUnits="userSpaceOnUse" gradientTransform="translate(0 0)"><stop id="eng7krmS51K9-fill-0" offset="0%" stop-color="#3384bd"/><stop id="eng7krmS51K9-fill-1" offset="100%" stop-color="#304faf"/></linearGradient><linearGradient id="eng7krmS51K39-fill" x1="91.418" y1="350.945" x2="214.388" y2="127.452" spreadMethod="pad" gradientUnits="userSpaceOnUse" gradientTransform="translate(0 0)"><stop id="eng7krmS51K39-fill-0" offset="0%" stop-color="#dee6ff"/><stop id="eng7krmS51K39-fill-1" offset="35%" stop-color="#fff"/><stop id="eng7krmS51K39-fill-2" offset="36%" stop-color="#ebf0ff"/><stop id="eng7krmS51K39-fill-3" offset="57%" stop-color="#fff"/><stop id="eng7krmS51K39-fill-4" offset="60%" stop-color="#ebf0ff"/><stop id="eng7krmS51K39-fill-5" offset="80%" stop-color="#fff"/><stop id="eng7krmS51K39-fill-6" offset="100%" stop-color="#fff"/></linearGradient><linearGradient id="eng7krmS51K44-fill" x1="526.25" y1="262.268" x2="458.754" y2="148.276" spreadMethod="pad" gradientUnits="userSpaceOnUse" gradientTransform="translate(0 0)"><stop id="eng7krmS51K44-fill-0" offset="0%" stop-color="#dee6ff"/><stop id="eng7krmS51K44-fill-1" offset="60%" stop-color="#dee6ff"/><stop id="eng7krmS51K44-fill-2" offset="80%" stop-color="#fff"/><stop id="eng7krmS51K44-fill-3" offset="100%" stop-color="#fff"/></linearGradient><linearGradient id="eng7krmS51K45-fill" x1="455.618" y1="157.328" x2="362.791" y2="189.9" spreadMethod="pad" gradientUnits="userSpaceOnUse" gradientTransform="translate(0 0)"><stop id="eng7krmS51K45-fill-0" offset="0%" stop-color="#3384bd"/><stop id="eng7krmS51K45-fill-1" offset="100%" stop-color="#304faf"/></linearGradient><linearGradient id="eng7krmS51K105-fill" x1="592.84" y1="300.563" x2="525.339" y2="186.571" spreadMethod="pad" gradientUnits="userSpaceOnUse" gradientTransform="translate(0 0)"><stop id="eng7krmS51K105-fill-0" offset="0%" stop-color="#dee6ff"/><stop id="eng7krmS51K105-fill-1" offset="60%" stop-color="#dee6ff"/><stop id="eng7krmS51K105-fill-2" offset="80%" stop-color="#fff"/><stop id="eng7krmS51K105-fill-3" offset="100%" stop-color="#fff"/></linearGradient><linearGradient id="eng7krmS51K106-fill" x1="522.208" y1="195.623" x2="429.381" y2="228.195" spreadMethod="pad" gradientUnits="userSpaceOnUse" gradientTransform="translate(0 0)"><stop id="eng7krmS51K106-fill-0" offset="0%" stop-color="#3384bd"/><stop id="eng7krmS51K106-fill-1" offset="100%" stop-color="#304faf"/></linearGradient><linearGradient id="eng7krmS51K168-fill" x1="659.426" y1="338.858" x2="591.925" y2="224.866" spreadMethod="pad" gradientUnits="userSpaceOnUse" gradientTransform="translate(0 0)"><stop id="eng7krmS51K168-fill-0" offset="0%" stop-color="#dee6ff"/><stop id="eng7krmS51K168-fill-1" offset="60%" stop-color="#dee6ff"/><stop id="eng7krmS51K168-fill-2" offset="80%" stop-color="#fff"/><stop id="eng7krmS51K168-fill-3" offset="100%" stop-color="#fff"/></linearGradient><linearGradient id="eng7krmS51K169-fill" x1="588.794" y1="233.918" x2="495.967" y2="266.49" spreadMethod="pad" gradientUnits="userSpaceOnUse" gradientTransform="translate(0 0)"><stop id="eng7krmS51K169-fill-0" offset="0%" stop-color="#3384bd"/><stop id="eng7krmS51K169-fill-1" offset="100%" stop-color="#304faf"/></linearGradient><linearGradient id="eng7krmS51K239-fill" x1="638.186" y1="269.15" x2="621.754" y2="289.406" spreadMethod="pad" gradientUnits="userSpaceOnUse" gradientTransform="translate(0 0)"><stop id="eng7krmS51K239-fill-0" offset="0%" stop-color="#3384bd"/><stop id="eng7krmS51K239-fill-1" offset="100%" stop-color="#304faf"/></linearGradient><linearGradient id="eng7krmS51K251-fill" x1="371.66" y1="281.381" x2="267.073" y2="455.254" spreadMethod="pad" gradientUnits="userSpaceOnUse" gradientTransform="translate(0 0)"><stop id="eng7krmS51K251-fill-0" offset="0%" stop-color="#3384bd"/><stop id="eng7krmS51K251-fill-1" offset="100%" stop-color="#304faf"/></linearGradient><linearGradient id="eng7krmS51K362-fill" x1="639.285" y1="368.025" x2="660.667" y2="368.025" spreadMethod="pad" gradientUnits="userSpaceOnUse" gradientTransform="translate(0 0)"><stop id="eng7krmS51K362-fill-0" offset="0%" stop-color="#fff"/><stop id="eng7krmS51K362-fill-1" offset="6%" stop-color="#fff"/><stop id="eng7krmS51K362-fill-2" offset="28%" stop-color="#dee6ff"/><stop id="eng7krmS51K362-fill-3" offset="100%" stop-color="#dee6ff"/></linearGradient><linearGradient id="eng7krmS51K364-fill" x1="649.977" y1="359.942" x2="639.768" y2="376.917" spreadMethod="pad" gradientUnits="userSpaceOnUse" gradientTransform="translate(0 0)"><stop id="eng7krmS51K364-fill-0" offset="0%" stop-color="#3384bd"/><stop id="eng7krmS51K364-fill-1" offset="100%" stop-color="#304faf"/></linearGradient></defs><path d="M611.013,387.42c-4.529,0-9.059-.993-12.503-2.983L411.689,276.736c-3.405-1.965-5.283-4.597-5.283-7.409s1.878-5.449,5.283-7.414l52.4-30.204c6.894-3.975,18.112-3.975,25.007,0L675.917,339.41c3.404,1.965,5.282,4.597,5.282,7.414s-1.878,5.449-5.282,7.409l-52.4,30.204c-3.45,1.985-7.974,2.983-12.504,2.983Zm-12.152-3.594c6.699,3.86,17.601,3.86,24.299,0l52.4-30.204c3.179-1.83,4.926-4.246,4.926-6.798s-1.747-4.963-4.926-6.798l-186.821-107.7c-6.699-3.86-17.6-3.86-24.299,0l-52.4,30.203c-3.178,1.83-4.926,4.246-4.926,6.798s1.748,4.963,4.926,6.798L598.861,383.826Z" fill="#ebf3f8"/><g style="mix-blend-mode:multiply" opacity="0.3"><path d="M612.807,374.346l48.026-27.682-48.026-27.683-48.026,27.683l48.026,27.682Z" fill="#dfe2f5"/></g><path d="M43.8176,106.618c0,0,.0353-.025.0555-.035l-.0606.035h.0051Z" fill="#acbcf5"/><path d="M114.561,379.73c-12.434,0-25.1633-2.852-34.9603-8.502l-11.4541-6.602c-9.4354-5.44-14.8486-12.854-14.8536-20.348c0-6.908,4.4742-13.305,12.609-18.007l165.509-96.206c17.556-10.116,47.102-9.545,65.868,1.273l11.454,6.603c9.435,5.439,14.849,12.853,14.854,20.348c0,6.908-4.475,13.304-12.609,18.006l-165.51,96.206c-8.391,4.838-19.524,7.229-30.907,7.229ZM262.319,223.538c-11.258,0-22.255,2.366-30.551,7.144L66.2585,326.887c-7.9089,4.567-12.2575,10.743-12.2525,17.391c0,7.233,5.2877,14.422,14.4972,19.731l11.4541,6.602c18.5696,10.703,47.7997,11.275,65.1597,1.274l165.509-96.206c7.904-4.567,12.258-10.743,12.253-17.39c0-7.234-5.288-14.423-14.498-19.732l-11.454-6.602c-9.696-5.59-22.305-8.417-34.608-8.417Z" transform="translate(-.000749 0.04999)" fill="#ebf3f8"/><g style="mix-blend-mode:multiply" opacity="0.3"><path d="M127.892,362.169l165.475-96.186c7.873-4.537,6.889-12.467-2.205-17.706l-11.454-6.602c-9.094-5.239-22.848-5.81-30.722-1.273L83.5121,336.587c-7.8738,4.537-6.8895,12.468,2.2044,17.706l11.4541,6.603c9.0944,5.238,22.8484,5.81,30.7214,1.273Z" fill="#dfe2f5"/></g><path d="M89.2188,331.76c0,23.601,16.5962,33.166,37.0692,21.365l103.774-59.811l44.285-25.526v-.01c20.458-12.197,36.934-40.932,36.934-64.608c0-20.815-12.725-30.861-29.698-25.256-5.543-30.054-30.902-40.551-61.363-22.995-14.688,8.467-28.196,22.092-38.861,38.024-6.106,9.119-11.284,18.994-15.221,29.086-.231.125-.462.255-.692.386-15.522,8.948-29.216,25.847-37.366,44.27-.597.306-1.195.637-1.792.983-20.473,11.795-37.0692,40.495-37.0692,64.092Z" transform="translate(.123 0)" fill="url(#eng7krmS51K9-fill)"/><path d="M220.225,160.434c27.629-15.922,51.456-6.993,56.663,21.23l.598,3.244l3.098-1.023c7.226-2.386,13.799-1.539,18.509,2.381c4.776,3.971,7.402,10.954,7.402,19.662c0,9.986-3.344,21.33-9.42,31.953-6.066,10.607-14.171,19.285-22.813,24.433l-.442.266-147.537,85.037c-17.802,10.262-32.2838,1.915-32.2838-18.609c0-20.523,14.4818-45.563,32.2838-55.825.502-.291,1.029-.577,1.561-.857l2.667-1.389l1.506-3.409c7.563-17.09,20.056-31.893,33.418-39.593.146-.085.287-.161.427-.241l.191-.105l2.802-1.569l1.406-3.605c4.992-12.788,12.157-25.23,20.724-35.983c8.823-11.069,18.926-20.058,29.225-25.993l.015-.005Zm0-5.514c-23.099,13.314-43.27,39.392-54.087,67.109-.231.131-.462.256-.692.391-15.522,8.944-29.211,25.843-37.366,44.266-.592.311-1.19.637-1.792.982-20.473,11.801-37.0692,40.496-37.0692,64.097c0,23.602,16.5962,33.167,37.0692,21.366l148.059-85.337v-.01c20.458-12.197,36.934-40.932,36.934-64.609c0-20.809-12.73-30.855-29.698-25.255-5.543-30.049-30.902-40.551-61.358-22.995v-.005Z" fill="#dee6ff"/><g id="eng7krmS51K11_to" transform="translate(237.634995,193.042503)"><path d="M226.523,213.115l18.224-10.502c2.068-1.194,3.746-4.392,3.746-7.144v-19.671c0-2.753-1.678-4.021-3.746-2.828l-18.224,10.503c-2.068,1.193-3.746,4.391-3.746,7.143v19.672c0,2.752,1.678,4.02,3.746,2.827Z" transform="translate(-235.634995,-193.042503)" opacity="0.5" fill="#fff"/></g><g id="eng7krmS51K12_to" transform="translate(257.456009,206.540497)"><path d="M250.871,216.639l9.17-5.284c1.039-.601,1.883-2.21,1.883-3.594v-9.896c0-1.383-.844-2.02-1.883-1.423l-9.17,5.283c-1.039.602-1.883,2.211-1.883,3.595v9.896c0,1.383.844,2.02,1.883,1.423Z" transform="translate(-255.456009,-206.540497)" opacity="0.3" fill="#fff"/></g><path d="M212.814,240.612l14.818-8.543c1.682-.967,3.048-3.569,3.048-5.81v-15.996c0-2.241-1.366-3.269-3.048-2.301l-14.818,8.542c-1.683.967-3.048,3.569-3.048,5.81v15.997c0,2.241,1.365,3.268,3.048,2.301Z" opacity="0.3" fill="#fff"/><g id="eng7krmS51K14_to" transform="translate(182.341995,285.136215)"><path d="M172.933,301.461l14.818-8.542c1.683-.968,3.048-3.569,3.048-5.81v-15.997c0-2.241-1.365-3.268-3.048-2.301l-14.818,8.542c-1.682.968-3.048,3.57-3.048,5.811v15.996c0,2.241,1.366,3.269,3.048,2.301Z" transform="translate(-180.341995,-285.136215)" opacity="0.4" fill="#fff"/></g><g id="eng7krmS51K15_to" transform="translate(156.611,266.875061)"><path d="M155.166,274.465l6.89-3.97c.783-.451,1.416-1.66,1.416-2.702v-7.44c0-1.042-.633-1.519-1.416-1.068l-6.89,3.971c-.783.451-1.416,1.659-1.416,2.702v7.439c0,1.043.633,1.519,1.416,1.068Z" transform="translate(-158.611,-266.875061)" opacity="0.4" fill="#fff"/></g><path d="M239.94,248.202l10.4-5.996c1.18-.682,2.139-2.506,2.139-4.076v-11.224c0-1.574-.959-2.296-2.139-1.614l-10.4,5.996c-1.18.681-2.139,2.506-2.139,4.075v11.225c0,1.574.959,2.296,2.139,1.614Z" opacity="0.4" fill="#fff"/><path d="M232.06,279.283l12.866-7.414c1.461-.842,2.646-3.103,2.646-5.043v-13.887c0-1.945-1.185-2.837-2.646-1.995l-12.866,7.415c-1.461.842-2.646,3.103-2.646,5.043v13.886c0,1.945,1.185,2.837,2.646,1.995Z" opacity="0.3" fill="#fff"/><g id="eng7krmS51K18_to" transform="translate(167.000999,250.620491)"><path d="M162.568,264.79l12.865-7.414c1.462-.843,2.647-3.104,2.647-5.044v-13.886c0-1.945-1.185-2.837-2.647-1.995l-12.865,7.414c-1.461.843-2.646,3.103-2.646,5.043v13.887c0,1.945,1.185,2.837,2.646,1.995Z" transform="translate(-169.000999,-250.620491)" opacity="0.3" fill="#fff"/></g><g id="eng7krmS51K19_to" transform="translate(142.340996,314.713486)"><path d="M135.908,326.883l12.865-7.415c1.461-.842,2.647-3.103,2.647-5.043v-13.886c0-1.945-1.186-2.837-2.647-1.995l-12.865,7.414c-1.461.842-2.646,3.103-2.646,5.043v13.886c0,1.946,1.185,2.838,2.646,1.996Z" transform="translate(-142.340996,-312.713486)" opacity="0.4" fill="#fff"/></g><g id="eng7krmS51K20_to" transform="translate(166.443497,289.494003)"><path d="M165.606,295.745l5.675-3.268c.642-.371,1.165-1.369,1.165-2.226v-6.126c0-.857-.523-1.253-1.165-.882l-5.675,3.268c-.642.371-1.165,1.369-1.165,2.226v6.126c0,.857.523,1.253,1.165.882Z" transform="translate(-168.443497,-289.494003)" opacity="0.2" fill="#fff"/></g><g id="eng7krmS51K21_to" transform="translate(270.341003,221.362)"><path d="M267.141,232.817l10.4-5.996c1.18-.682,2.139-2.506,2.139-4.075v-11.225c0-1.574-.959-2.296-2.139-1.614l-10.4,5.996c-1.18.682-2.139,2.506-2.139,4.075v11.225c0,1.574.959,2.296,2.139,1.614Z" transform="translate(-272.341003,-221.362)" opacity="0.3" fill="#fff"/></g><path d="M257.032,252.879l4.539-2.617c.517-.296.934-1.093.934-1.78v-4.902c0-.687-.417-1.003-.934-.707l-4.539,2.616c-.518.296-.934,1.093-.934,1.78v4.903c0,.687.416,1.003.934.707Z" opacity="0.3" fill="#fff"/><path d="M219.266,255.621l4.539-2.617c.518-.296.934-1.093.934-1.78v-4.902c0-.687-.416-1.003-.934-.707l-4.539,2.617c-.517.295-.934,1.093-.934,1.779v4.903c0,.687.417,1.003.934.707Z" opacity="0.3" fill="#fff"/><g id="eng7krmS51K24_tr" transform="translate(245.689,217.486465) rotate(0)"><path d="M240.215,227.603l4.54-2.616c.517-.296.934-1.093.934-1.78v-4.903c0-.687-.417-1.002-.934-.707l-4.54,2.617c-.517.296-.934,1.093-.934,1.78v4.903c0,.686.417,1.002.934.706Z" transform="translate(-245.689,-217.486464)" opacity="0.2" fill="#fff"/></g><g id="eng7krmS51K25_to" transform="translate(143.009499,286.4095)"><path d="M137.254,294.689l7.512-4.332c.854-.491,1.546-1.809,1.546-2.947v-8.112c0-1.132-.692-1.659-1.546-1.168l-7.512,4.332c-.854.491-1.547,1.809-1.547,2.947v8.112c0,1.132.693,1.659,1.547,1.168Z" transform="translate(-141.009499,-286.4095)" opacity="0.2" fill="#fff"/></g><g id="eng7krmS51K26_to" transform="translate(124.826,303.433792)"><path d="M120.071,313.909l9.51-5.48c1.08-.621,1.954-2.291,1.954-3.729v-10.267c0-1.439-.874-2.096-1.954-1.474l-9.51,5.479c-1.08.622-1.954,2.291-1.954,3.73v10.267c0,1.439.874,2.095,1.954,1.474Z" transform="translate(-124.826,-303.433792)" opacity="0.2" fill="#fff"/></g><g id="eng7krmS51K27_tr" transform="translate(213.223,265.708588) rotate(0)"><path d="M209.022,283.889l8.401-4.842c.954-.552,1.728-2.025,1.728-3.294v-9.068c0-1.269-.774-1.855-1.728-1.304l-8.401,4.843c-.954.551-1.727,2.025-1.727,3.293v9.069c0,1.268.773,1.855,1.727,1.303Z" transform="translate(-213.223,-265.708586)" opacity="0.2" fill="#fff"/></g><g id="eng7krmS51K28_to" transform="translate(151.965004,314.83078)"><path d="M147.765,326.085l8.401-4.843c.954-.551,1.727-2.025,1.727-3.293v-9.069c0-1.268-.773-1.855-1.727-1.303l-8.401,4.842c-.955.552-1.728,2.026-1.728,3.294v9.069c0,1.268.773,1.854,1.728,1.303Z" transform="translate(-151.965004,-316.83078)" opacity="0.2" fill="#fff"/></g><g id="eng7krmS51K29_to" transform="translate(193.387996,261.575364)"><path d="M186.446,279.198l13.985-8.061c1.586-.918,2.877-3.369,2.877-5.485v-15.099c0-2.115-1.286-3.083-2.877-2.171l-13.985,8.061c-1.587.918-2.878,3.369-2.878,5.485v15.099c0,2.116,1.286,3.083,2.878,2.171Z" transform="translate(-193.437996,-263.79007)" opacity="0.2" fill="#fff"/></g><g id="eng7krmS51K30_to" transform="translate(207.156502,219.361511)"><path d="M204.499,231.623l9.315-5.369c1.06-.611,1.913-2.246,1.913-3.654v-10.056c0-1.409-.858-2.056-1.913-1.444l-9.315,5.369c-1.059.611-1.913,2.246-1.913,3.654v10.057c0,1.408.859,2.055,1.913,1.443Z" transform="translate(-209.156502,-221.361511)" opacity="0.2" fill="#fff"/></g><g id="eng7krmS51K31_tr" transform="translate(188.893501,224.249496) rotate(0)"><path d="M185.084,232.641l7.618-4.391c.864-.496,1.567-1.835,1.567-2.988v-8.221c0-1.153-.703-1.68-1.567-1.183l-7.618,4.391c-.863.496-1.566,1.835-1.566,2.988v8.221c0,1.153.703,1.68,1.566,1.183Z" transform="translate(-188.893501,-224.249496)" opacity="0.2" fill="#fff"/></g><g id="eng7krmS51K32_to" transform="translate(204.683998,198.874001)"><path d="M202.414,205.877l4.54-2.617c.517-.296.934-1.093.934-1.78v-4.902c0-.687-.417-1.003-.934-.707l-4.54,2.617c-.517.295-.934,1.092-.934,1.779v4.903c0,.687.417,1.003.934.707Z" transform="translate(-204.683998,-200.874001)" opacity="0.2" fill="#fff"/></g><g id="eng7krmS51K33_to" transform="translate(116.961502,300.633774)"><path d="M114.692,305.637l4.539-2.617c.517-.296.934-1.093.934-1.78v-4.903c0-.686-.417-1.002-.934-.706l-4.539,2.616c-.517.296-.934,1.093-.934,1.78v4.903c0,.687.417,1.002.934.707Z" transform="translate(-116.961502,-300.633774)" opacity="0.4" fill="#fff"/></g><g id="eng7krmS51K34_to" transform="translate(259.301498,176.997002)"><path d="M257.032,180l4.539-2.617c.517-.296.934-1.093.934-1.78v-4.902c0-.687-.417-1.003-.934-.707l-4.539,2.617c-.518.295-.934,1.092-.934,1.779v4.903c0,.687.416,1.003.934.707Z" transform="translate(-259.301498,-174.997002)" opacity="0.3" fill="#fff"/></g><g id="eng7krmS51K35_to" transform="translate(118.9105,328.731995)"><path d="M116.641,333.735l4.539-2.617c.518-.295.934-1.092.934-1.779v-4.903c0-.687-.416-1.003-.934-.707l-4.539,2.617c-.517.296-.934,1.093-.934,1.78v4.902c0,.687.417,1.003.934.707Z" transform="translate(-118.9105,-328.731995)" opacity="0.3" fill="#fff"/></g><g id="eng7krmS51K36_to" transform="translate(282.815994,232.282997)"><path d="M274.81,245.515l12.012-6.923c1.366-.787,2.47-2.893,2.47-4.712v-12.964c0-1.815-1.104-2.652-2.47-1.865l-12.012,6.923c-1.365.787-2.47,2.892-2.47,4.712v12.964c0,1.815,1.105,2.652,2.47,1.865Z" transform="translate(-280.815994,-232.282997)" opacity="0.4" fill="#fff"/></g><g id="eng7krmS51K37_tr" transform="translate(286.356003,201.920784) rotate(0)"><path d="M284.305,206.443l4.102-2.367c.467-.27.844-.987.844-1.609v-4.431c0-.622-.377-.908-.844-.637l-4.102,2.366c-.467.271-.844.988-.844,1.609v4.432c0,.622.377.907.844.637Z" transform="translate(-286.356003,-201.920784)" opacity="0.4" fill="#fff"/></g><path d="M300.217,178.881c-5.027-2.898-11.474-3.344-18.69-.962-.763-4.131-1.898-7.891-3.375-11.26l22.185,12.082-.125.14h.005Z" fill="#fff"/><path d="M234.793,134.24c-11.269-6.206-26.685-5.158-43.693,4.647-23.099,13.315-43.27,39.393-54.087,67.11-.231.13-.462.256-.692.391-15.522,8.943-29.211,25.842-37.3657,44.265-.5925.311-1.1901.637-1.7926.983-12.5288,7.219-23.5962,20.769-30.305,35.603-4.2582,9.409-6.7639,19.335-6.7639,28.494c0,11.535,3.967,19.716,10.4146,23.692l.0552.03c.457.281.929.536,1.4111.777L99.106,355.156c-6.1664-4.076-9.9426-12.137-9.9426-23.391c0-8.984,2.4103-18.709,6.5229-27.958c6.6837-15.044,17.8717-28.83,30.5457-36.139.603-.346,1.195-.672,1.793-.983c8.155-18.423,21.849-35.322,37.365-44.265.231-.136.462-.261.693-.391c10.816-27.717,30.988-53.795,54.087-67.11c16.385-9.445,31.294-10.763,42.437-5.294L234.788,134.24h.005Z" fill="url(#eng7krmS51K39-fill)"/><path d="M101.627,356.535l-.016-.011c0,0,.011.006.016.011Z" fill="#acbcf5"/><g style="mix-blend-mode:multiply" opacity="0.3"><path d="M479.63,297.756l48.026-27.682-48.026-27.682-48.021,27.682l48.021,27.682Z" fill="#dfe2f5"/></g><path d="M479.63,274.55v-80.379c0-7.7-4.69-16.644-10.474-19.977L442.08,158.588c-2.115-1.218-5.514-.847-7.156-.361l48.277-27.843c1.843-1.087,4.258-1.002,6.904.522l27.076,15.605c5.785,3.334,10.475,12.277,10.475,19.977v94.321L479.63,288.491v-13.941Z" fill="url(#eng7krmS51K44-fill)"/><path d="M442.08,158.583l27.076,15.606c5.785,3.333,10.475,12.277,10.475,19.977v94.32l-10.475-6.035-27.076-15.606-10.475-6.036v-94.321c0-7.7,4.691-11.239,10.475-7.905Z" fill="url(#eng7krmS51K45-fill)"/><g opacity="0.85"><g opacity="0.3"><path d="M436.01,174.595l38.239,22.037v-4.386L436.01,170.203v4.392Z" fill="#fff"/></g><g opacity="0.3"><path d="M436.01,182.395l38.239,22.043v-4.392L436.01,178.009v4.386Z" fill="#fff"/></g><g opacity="0.3"><path d="M436.01,190.2l38.239,22.043v-4.392L436.01,185.809v4.391Z" fill="#3384bd"/></g><g opacity="0.3"><path d="M436.01,203.605l38.239,22.043v-4.392L436.01,199.214v4.391Z" fill="#fff"/></g><g opacity="0.3"><path d="M436.01,211.411l38.239,22.038v-4.387L436.01,207.02v4.391Z" fill="#3384bd"/></g><g opacity="0.3"><path d="M436.01,219.211l38.239,22.043v-4.392L436.01,214.825v4.386Z" fill="#fff"/></g><g opacity="0.3"><path d="M436.01,232.616l38.239,22.042v-4.391L436.01,228.23v4.386Z" fill="#3384bd"/></g><g opacity="0.3"><path d="M436.01,240.421l38.239,22.042v-4.391L436.01,236.03v4.391Z" fill="#fff"/></g><g id="eng7krmS51K63" opacity="0.8"><path d="M436.01,248.227l38.239,22.037v-4.386L436.01,243.835v4.392Z" fill="#fff"/></g><g opacity="0.8"><path d="M466.316,190.532l5.237,3.017c.322.186.578.036.578-.335s-.261-.818-.578-1.003l-5.237-3.018c-.322-.185-.578-.035-.578.336s.261.817.578,1.003Z" fill="#fff"/><path d="M458.066,185.78l5.237,3.017c.322.186.578.036.578-.335s-.261-.818-.578-1.003l-5.237-3.018c-.322-.185-.578-.035-.578.336s.261.817.578,1.003Z" fill="#fff"/><path id="eng7krmS51K68" d="M438.812,174.68l12.554,7.234c.321.185.577.035.577-.336s-.261-.817-.577-1.003l-12.554-7.233c-.322-.186-.578-.036-.578.335s.261.818.578,1.003Z" fill="#fff"/></g><g opacity="0.8"><path d="M466.316,198.337l5.237,3.018c.322.185.578.035.578-.336s-.261-.817-.578-1.003l-5.237-3.018c-.322-.185-.578-.035-.578.336s.261.817.578,1.003Z" fill="#fff"/><path d="M458.066,193.584l5.237,3.018c.322.185.578.035.578-.336s-.261-.817-.578-1.003l-5.237-3.018c-.322-.185-.578-.035-.578.336s.261.817.578,1.003Z" fill="#fff"/><path d="M438.812,182.485l12.554,7.234c.321.186.577.035.577-.336s-.261-.817-.577-1.002l-12.554-7.234c-.322-.186-.578-.035-.578.336s.261.817.578,1.002Z" fill="#fff"/></g><g opacity="0.8"><path d="M466.316,206.142l5.237,3.018c.322.185.578.035.578-.336s-.261-.817-.578-1.003l-5.237-3.018c-.322-.185-.578-.035-.578.336s.261.817.578,1.003Z" fill="#ebf3f8"/><path d="M458.066,201.384l5.237,3.018c.322.185.578.035.578-.336s-.261-.817-.578-1.003l-5.237-3.018c-.322-.185-.578-.035-.578.336s.261.817.578,1.003Z" fill="#ebf3f8"/><path id="eng7krmS51K76" d="M438.812,190.29l12.554,7.234c.321.186.577.035.577-.336s-.261-.817-.577-1.002l-12.554-7.234c-.322-.186-.578-.035-.578.336s.261.817.578,1.002Z" fill="#ebf3f8"/></g><g opacity="0.8"><path d="M466.316,219.547l5.237,3.018c.322.186.578.035.578-.336s-.261-.817-.578-1.002l-5.237-3.018c-.322-.186-.578-.035-.578.336s.261.817.578,1.002Z" fill="#fff"/><path id="eng7krmS51K79" d="M458.066,214.789l5.237,3.018c.322.186.578.035.578-.336s-.261-.817-.578-1.002l-5.237-3.018c-.322-.186-.578-.035-.578.336s.261.817.578,1.002Z" fill="#fff"/><path d="M438.812,203.696l12.554,7.233c.321.186.577.036.577-.335s-.261-.818-.577-1.003l-12.554-7.234c-.322-.185-.578-.035-.578.336s.261.817.578,1.003Z" fill="#fff"/></g><g id="eng7krmS51K81" opacity="0.8"><path id="eng7krmS51K82" d="M466.314,227.353l5.237,3.017c.322.186.578.036.578-.335s-.261-.818-.578-1.003l-5.237-3.018c-.322-.185-.578-.035-.578.336s.261.817.578,1.003Z" fill="#ebf3f8"/><path d="M458.066,222.596l5.237,3.018c.322.185.578.035.578-.336s-.261-.817-.578-1.003l-5.237-3.018c-.322-.185-.578-.035-.578.336s.261.817.578,1.003Z" fill="#ebf3f8"/><path d="M438.812,211.496l12.554,7.234c.321.186.577.035.577-.336s-.261-.817-.577-1.002l-12.554-7.234c-.322-.186-.578-.035-.578.336s.261.817.578,1.002Z" fill="#ebf3f8"/></g><g opacity="0.8"><path d="M466.316,235.153l5.237,3.017c.322.186.578.035.578-.335c0-.371-.261-.818-.578-1.003l-5.237-3.018c-.322-.185-.578-.035-.578.336s.261.817.578,1.003Z" fill="#fff"/><path d="M458.066,230.401l5.237,3.017c.322.186.578.036.578-.335s-.261-.818-.578-1.003l-5.237-3.018c-.322-.185-.578-.035-.578.336s.261.817.578,1.003Z" fill="#fff"/><path id="eng7krmS51K88" d="M438.812,219.301l12.554,7.234c.321.185.577.035.577-.336s-.261-.817-.577-1.003l-12.554-7.234c-.322-.185-.578-.035-.578.336s.261.817.578,1.003Z" fill="#fff"/></g><g opacity="0.8"><path d="M466.316,248.563l5.237,3.018c.322.185.578.035.578-.336s-.261-.817-.578-1.003l-5.237-3.018c-.322-.185-.578-.035-.578.336s.261.817.578,1.003Z" fill="#ebf3f8"/><path id="eng7krmS51K91" d="M458.066,243.805l5.237,3.018c.322.185.578.035.578-.336s-.261-.817-.578-1.003l-5.237-3.018c-.322-.185-.578-.035-.578.336s.261.817.578,1.003Z" fill="#ebf3f8"/><path d="M438.812,232.711l12.554,7.234c.321.186.577.035.577-.336s-.261-.817-.577-1.002l-12.554-7.234c-.322-.186-.578-.035-.578.336s.261.817.578,1.002Z" fill="#ebf3f8"/></g><g opacity="0.8"><path d="M466.316,256.363l5.237,3.018c.322.186.578.035.578-.336s-.261-.817-.578-1.002l-5.237-3.018c-.322-.186-.578-.035-.578.336s.261.817.578,1.002Z" fill="#fff"/><path d="M458.066,251.606l5.237,3.018c.322.185.578.035.578-.336s-.261-.818-.578-1.003l-5.237-3.018c-.322-.185-.578-.035-.578.336s.261.817.578,1.003Z" fill="#fff"/><path id="eng7krmS51K96" d="M438.812,240.512l12.554,7.234c.321.185.577.035.577-.336s-.261-.817-.577-1.003l-12.554-7.234c-.322-.185-.578-.035-.578.336s.261.817.578,1.003Z" fill="#fff"/></g><g opacity="0.8"><path d="M466.314,264.163l5.237,3.018c.322.186.578.035.578-.336s-.261-.817-.578-1.002l-5.237-3.018c-.322-.186-.578-.035-.578.336s.261.817.578,1.002Z" fill="#fff"/><path id="eng7krmS51K99" d="M458.066,259.406l5.237,3.018c.322.185.578.035.578-.336s-.261-.817-.578-1.003l-5.237-3.018c-.322-.185-.578-.035-.578.336s.261.817.578,1.003Z" fill="#fff"/><path d="M438.812,248.312l12.554,7.234c.321.185.577.035.577-.336s-.261-.817-.577-1.003l-12.554-7.234c-.322-.185-.578-.035-.578.336s.261.817.578,1.003Z" fill="#fff"/></g></g><g style="mix-blend-mode:multiply"><path d="M527.656,260.809L479.63,288.491l-48.021-27.953v-2.145l48.021,27.526l48.026-27.526v2.416Z" fill="#e8edfa"/></g><g style="mix-blend-mode:multiply" opacity="0.3"><path d="M546.221,336.051l48.026-27.682-48.026-27.682-48.026,27.682l48.026,27.682Z" fill="#dfe2f5"/></g><path d="M546.22,312.845v-80.38c0-7.7-4.69-16.643-10.475-19.977l-27.076-15.605c-2.114-1.218-5.513-.847-7.155-.361l48.277-27.843c1.843-1.088,4.258-1.002,6.904.522l27.076,15.605c5.785,3.334,10.475,12.277,10.475,19.977v94.321L546.22,326.786v-13.941Z" fill="url(#eng7krmS51K105-fill)"/><path d="M508.67,196.878l27.076,15.605c5.785,3.334,10.475,12.277,10.475,19.977v94.321l-10.475-6.035L508.67,305.14l-10.475-6.036v-94.321c0-7.7,4.69-11.239,10.475-7.905Z" fill="url(#eng7krmS51K106-fill)"/><g opacity="0.85"><g opacity="0.3"><path d="M502.594,212.89l38.244,22.037v-4.386l-38.244-22.043v4.392Z" fill="#fff"/></g><g opacity="0.3"><path d="M502.594,220.69l38.244,22.043v-4.392l-38.244-22.037v4.386Z" fill="#fff"/></g><g opacity="0.3"><path d="M502.594,228.495l38.244,22.043v-4.392l-38.244-22.042v4.391Z" fill="#3384bd"/></g><g opacity="0.3"><path d="M502.594,241.9l38.244,22.043v-4.392l-38.244-22.042v4.391Z" fill="#fff"/></g><g opacity="0.3"><path d="M502.594,249.706l38.244,22.038v-4.387l-38.244-22.042v4.391Z" fill="#3384bd"/></g><g id="eng7krmS51K118" opacity="0.3"><path d="M502.594,257.511l38.244,22.037v-4.386L502.594,253.12v4.391Z" fill="#fff"/></g><g opacity="0.3"><path d="M502.594,270.911l38.244,22.042v-4.391l-38.244-22.038v4.387Z" fill="#3384bd"/></g><g opacity="0.3"><path d="M502.594,278.716l38.244,22.042v-4.391l-38.244-22.043v4.392Z" fill="#fff"/></g><g opacity="0.3"><path d="M502.594,286.522l38.244,22.042v-4.391L502.594,282.13v4.392Z" fill="#fff"/></g><g opacity="0.8"><g id="eng7krmS51K127"><path d="M532.906,228.826l5.237,3.018c.321.186.578.035.578-.336s-.262-.817-.578-1.002l-5.237-3.018c-.322-.186-.578-.035-.578.336s.261.817.578,1.002Z" fill="#fff"/><path d="M524.656,224.075l5.237,3.017c.321.186.578.035.578-.336c0-.37-.262-.817-.578-1.002l-5.237-3.018c-.322-.185-.578-.035-.578.336s.261.817.578,1.003Z" fill="#fff"/><path d="M505.402,212.975l12.553,7.234c.322.185.578.035.578-.336s-.261-.817-.578-1.003l-12.553-7.234c-.322-.185-.578-.035-.578.336s.261.817.578,1.003Z" fill="#fff"/></g></g><g opacity="0.8"><path d="M532.906,236.632l5.237,3.018c.321.185.578.035.578-.336s-.262-.817-.578-1.003l-5.237-3.018c-.322-.185-.578-.035-.578.336s.261.817.578,1.003Z" fill="#fff"/><path d="M524.656,231.879l5.237,3.018c.321.185.578.035.578-.336s-.262-.817-.578-1.003l-5.237-3.018c-.322-.185-.578-.035-.578.336s.261.817.578,1.003Z" fill="#fff"/><path d="M505.402,220.78l12.553,7.234c.322.186.578.035.578-.336s-.261-.817-.578-1.002l-12.553-7.234c-.322-.186-.578-.035-.578.336s.261.817.578,1.002Z" fill="#fff"/></g><g opacity="0.8"><g id="eng7krmS51K136"><path d="M532.906,244.437l5.237,3.018c.321.185.578.035.578-.336s-.262-.817-.578-1.003l-5.237-3.018c-.322-.185-.578-.035-.578.336s.261.817.578,1.003Z" fill="#ebf3f8"/><path d="M524.656,239.679l5.237,3.018c.321.185.578.035.578-.336s-.262-.817-.578-1.003l-5.237-3.018c-.322-.185-.578-.035-.578.336s.261.817.578,1.003Z" fill="#ebf3f8"/></g><path d="M505.402,228.585l12.553,7.234c.322.185.578.035.578-.336s-.261-.817-.578-1.003l-12.553-7.233c-.322-.186-.578-.035-.578.336c0,.37.261.817.578,1.002Z" fill="#ebf3f8"/></g><g opacity="0.8"><path d="M532.904,257.842l5.237,3.018c.322.185.578.035.578-.336s-.262-.817-.578-1.003l-5.237-3.018c-.322-.185-.578-.035-.578.336s.261.817.578,1.003Z" fill="#fff"/><path d="M524.656,253.084l5.237,3.018c.321.186.578.035.578-.336s-.262-.817-.578-1.002l-5.237-3.018c-.322-.186-.578-.035-.578.336s.261.817.578,1.002Z" fill="#fff"/><path d="M505.402,241.991l12.553,7.233c.322.186.578.035.578-.335c0-.371-.261-.818-.578-1.003l-12.553-7.234c-.322-.185-.578-.035-.578.336s.261.817.578,1.003Z" fill="#fff"/></g><g opacity="0.8"><g id="eng7krmS51K145" transform="translate(.000001 0)"><path d="M532.904,265.648l5.237,3.017c.322.186.578.035.578-.335c0-.371-.262-.818-.578-1.003l-5.237-3.018c-.322-.185-.578-.035-.578.336s.261.817.578,1.003Z" fill="#ebf3f8"/><path d="M524.656,260.891l5.237,3.018c.321.185.578.035.578-.336s-.262-.817-.578-1.003l-5.237-3.018c-.322-.185-.578-.035-.578.336s.261.817.578,1.003Z" fill="#ebf3f8"/><path d="M505.402,249.791l12.553,7.234c.322.186.578.035.578-.336s-.261-.817-.578-1.002l-12.553-7.234c-.322-.186-.578-.035-.578.336s.261.817.578,1.002Z" fill="#ebf3f8"/></g></g><g opacity="0.8"><path d="M532.904,273.447l5.237,3.018c.322.186.578.035.578-.336s-.262-.817-.578-1.002l-5.237-3.018c-.322-.186-.578-.035-.578.336s.261.817.578,1.002Z" fill="#fff"/><path d="M524.656,268.695l5.237,3.018c.321.186.578.035.578-.336c0-.37-.262-.817-.578-1.002l-5.237-3.018c-.322-.185-.578-.035-.578.336s.261.817.578,1.002Z" fill="#fff"/><path d="M505.402,257.596l12.553,7.234c.322.185.578.035.578-.336s-.261-.817-.578-1.003l-12.553-7.234c-.322-.185-.578-.035-.578.336s.261.817.578,1.003Z" fill="#fff"/></g><g opacity="0.8"><path d="M532.906,286.858l5.237,3.018c.321.185.578.035.578-.336s-.262-.817-.578-1.003l-5.237-3.018c-.322-.185-.578-.035-.578.336s.261.817.578,1.003Z" fill="#ebf3f8"/><path d="M524.656,282.1l5.237,3.018c.321.185.578.035.578-.336s-.262-.817-.578-1.003l-5.237-3.018c-.322-.185-.578-.035-.578.336s.261.817.578,1.003Z" fill="#ebf3f8"/><path d="M505.402,271.006l12.553,7.234c.322.186.578.035.578-.336s-.261-.817-.578-1.002l-12.553-7.234c-.322-.186-.578-.035-.578.336s.261.817.578,1.002Z" fill="#ebf3f8"/></g><g opacity="0.8"><g id="eng7krmS51K158"><path d="M532.906,294.658l5.237,3.018c.321.186.578.035.578-.336s-.262-.817-.578-1.002l-5.237-3.018c-.322-.186-.578-.035-.578.336s.261.817.578,1.002Z" fill="#fff"/><path d="M524.656,289.901l5.237,3.017c.321.186.578.036.578-.335s-.262-.818-.578-1.003l-5.237-3.018c-.322-.185-.578-.035-.578.336s.261.817.578,1.003Z" fill="#fff"/><path d="M505.402,278.807l12.553,7.234c.322.185.578.035.578-.336s-.261-.817-.578-1.003l-12.553-7.234c-.322-.185-.578-.035-.578.336s.261.817.578,1.003Z" fill="#fff"/></g></g><g opacity="0.8"><path d="M532.906,302.458l5.237,3.018c.321.186.578.035.578-.336s-.262-.817-.578-1.002l-5.237-3.018c-.322-.186-.578-.035-.578.336s.261.817.578,1.002Z" fill="#fff"/><path d="M524.656,297.701l5.237,3.017c.321.186.578.036.578-.335s-.262-.818-.578-1.003l-5.237-3.018c-.322-.185-.578-.035-.578.336s.261.817.578,1.003Z" fill="#fff"/><path d="M505.402,286.607l12.553,7.234c.322.185.578.035.578-.336s-.261-.817-.578-1.003l-12.553-7.234c-.322-.185-.578-.035-.578.336s.261.817.578,1.003Z" fill="#fff"/></g></g><g style="mix-blend-mode:multiply"><path d="M594.247,299.104l-48.026,27.682-48.026-27.953v-2.145l48.026,27.526l48.026-27.526v2.416Z" fill="#e8edfa"/></g><path d="M612.806,351.14v-80.38c0-7.7-4.69-16.643-10.475-19.977l-27.076-15.605c-2.114-1.218-5.513-.848-7.155-.361l48.277-27.843c1.842-1.088,4.258-1.002,6.904.522l27.076,15.605c5.785,3.334,10.475,12.277,10.475,19.977v94.321l-48.026,27.682v-13.941Z" fill="url(#eng7krmS51K168-fill)"/><path d="M575.256,235.172l27.076,15.606c5.785,3.334,10.475,12.277,10.475,19.977v94.321l-10.475-6.036-27.076-15.605-10.475-6.036v-94.321c0-7.7,4.69-11.239,10.475-7.906Z" fill="url(#eng7krmS51K169-fill)"/><g opacity="0.85"><g opacity="0.3"><path d="M569.186,251.184l38.238,22.038v-4.387l-38.238-22.042v4.391Z" fill="#fff"/></g><g opacity="0.3"><path d="M569.186,258.985l38.238,22.043v-4.392l-38.238-22.037v4.386Z" fill="#fff"/></g><g opacity="0.3"><path d="M569.186,266.79l38.238,22.042v-4.391l-38.238-22.038v4.387Z" fill="#3384bd"/></g><g id="eng7krmS51K177" opacity="0.3"><path d="M569.186,280.195l38.238,22.042v-4.391l-38.238-22.042v4.391Z" fill="#fff"/></g><g id="eng7krmS51K179"><path d="M569.186,288.001l38.238,22.037v-4.386l-38.238-22.043v4.392Z" fill="#3384bd"/></g><g id="eng7krmS51K181" opacity="0.8"><path d="M569.186,295.806l38.238,22.037v-4.386l-38.238-22.043v4.392Z" fill="#fff"/></g><g id="eng7krmS51K183"><path d="M569.186,309.206l38.238,22.042v-4.391l-38.238-22.038v4.387Z" fill="#3384bd"/></g><g opacity="0.3"><path d="M569.186,317.011l38.238,22.043v-4.392l-38.238-22.037v4.386Z" fill="#fff"/></g><g opacity="0.3"><path id="eng7krmS51K188" d="M569.186,324.816l38.238,22.043v-4.392l-38.238-22.042v4.391Z" fill="#fff"/></g><g opacity="0.8"><path d="M599.49,267.126l5.237,3.018c.321.185.578.035.578-.336s-.262-.817-.578-1.003l-5.237-3.018c-.322-.185-.578-.035-.578.336s.261.817.578,1.003Z" fill="#fff"/><path d="M591.242,262.369l5.237,3.018c.321.186.577.035.577-.336s-.261-.817-.577-1.002l-5.237-3.018c-.322-.186-.578-.035-.578.336s.261.817.578,1.002Z" fill="#fff"/><path d="M571.988,251.27l12.553,7.233c.322.186.578.036.578-.335s-.261-.818-.578-1.003l-12.553-7.234c-.322-.185-.578-.035-.578.336s.261.817.578,1.003Z" fill="#fff"/></g><g opacity="0.8"><path d="M599.492,274.927l5.237,3.017c.321.186.578.036.578-.335s-.262-.818-.578-1.003l-5.237-3.018c-.322-.185-.578-.035-.578.336s.261.817.578,1.003Z" fill="#fff"/><path d="M591.242,270.174l5.237,3.018c.321.185.577.035.577-.336s-.261-.818-.577-1.003l-5.237-3.018c-.322-.185-.578-.035-.578.336s.261.817.578,1.003Z" fill="#fff"/><path d="M571.988,259.075l12.553,7.234c.322.185.578.035.578-.336s-.261-.817-.578-1.003l-12.553-7.233c-.322-.186-.578-.036-.578.335s.261.818.578,1.003Z" fill="#fff"/></g><g id="eng7krmS51K197"><path d="M599.492,282.732l5.237,3.018c.321.186.578.035.578-.336s-.262-.817-.578-1.002l-5.237-3.018c-.322-.186-.578-.035-.578.336s.261.817.578,1.002Z" fill="#ebf3f8"/><path d="M591.242,277.975l5.237,3.017c.321.186.577.036.577-.335s-.261-.818-.577-1.003l-5.237-3.018c-.322-.185-.578-.035-.578.336s.261.817.578,1.003Z" fill="#ebf3f8"/><path d="M571.988,266.881l12.553,7.234c.322.185.578.035.578-.336s-.261-.817-.578-1.003l-12.553-7.234c-.322-.185-.578-.035-.578.336s.261.817.578,1.003Z" fill="#ebf3f8"/></g><g opacity="0.8"><path d="M599.492,296.137l5.237,3.018c.321.185.578.035.578-.336s-.262-.817-.578-1.003l-5.237-3.018c-.322-.185-.578-.035-.578.336s.261.817.578,1.003Z" fill="#fff"/><path d="M591.242,291.379l5.237,3.018c.321.185.577.035.577-.336s-.261-.817-.577-1.003l-5.237-3.017c-.322-.186-.578-.036-.578.335s.261.818.578,1.003Z" fill="#fff"/><path d="M571.988,280.285l12.553,7.234c.322.186.578.035.578-.336s-.261-.817-.578-1.002l-12.553-7.234c-.322-.186-.578-.035-.578.336s.261.817.578,1.002Z" fill="#fff"/></g><g opacity="0.8"><path d="M599.49,303.942l5.237,3.018c.321.186.578.035.578-.336s-.262-.817-.578-1.002l-5.237-3.018c-.322-.186-.578-.035-.578.336s.261.817.578,1.002Z" fill="#ebf3f8"/><path d="M591.242,299.186l5.237,3.017c.321.186.577.035.577-.336c0-.37-.261-.817-.577-1.002l-5.237-3.018c-.322-.185-.578-.035-.578.336s.261.817.578,1.003Z" fill="#ebf3f8"/><path d="M571.988,288.086l12.553,7.234c.322.185.578.035.578-.336s-.261-.817-.578-1.003l-12.553-7.234c-.322-.185-.578-.035-.578.336s.261.817.578,1.003Z" fill="#ebf3f8"/></g><g opacity="0.8"><path d="M599.492,311.742l5.237,3.018c.321.186.578.035.578-.336s-.262-.817-.578-1.002l-5.237-3.018c-.322-.186-.578-.035-.578.336c0,.37.261.817.578,1.002Z" fill="#fff"/><path d="M591.242,306.99l5.237,3.018c.321.186.577.035.577-.336s-.261-.817-.577-1.002l-5.237-3.018c-.322-.186-.578-.035-.578.336s.261.817.578,1.002Z" fill="#fff"/><path d="M571.988,295.891l12.553,7.233c.322.186.578.036.578-.335s-.261-.818-.578-1.003l-12.553-7.234c-.322-.185-.578-.035-.578.336s.261.817.578,1.003Z" fill="#fff"/></g><g opacity="0.8"><path d="M599.492,325.152l5.237,3.018c.321.186.578.035.578-.336s-.262-.817-.578-1.002l-5.237-3.018c-.322-.186-.578-.035-.578.336s.261.817.578,1.002Z" fill="#ebf3f8"/><path d="M591.242,320.395l5.237,3.018c.321.185.577.035.577-.336s-.261-.818-.577-1.003l-5.237-3.018c-.322-.185-.578-.035-.578.336s.261.817.578,1.003Z" fill="#ebf3f8"/><path d="M571.988,309.301l12.553,7.234c.322.185.578.035.578-.336s-.261-.817-.578-1.003l-12.553-7.234c-.322-.185-.578-.035-.578.336s.261.817.578,1.003Z" fill="#ebf3f8"/></g><g opacity="0.8"><path d="M599.492,332.953l5.237,3.018c.321.185.578.035.578-.336s-.262-.817-.578-1.003l-5.237-3.017c-.322-.186-.578-.036-.578.335s.261.818.578,1.003Z" fill="#fff"/><path d="M591.242,328.195l5.237,3.018c.321.186.577.035.577-.336s-.261-.817-.577-1.002l-5.237-3.018c-.322-.186-.578-.035-.578.336s.261.817.578,1.002Z" fill="#fff"/><path d="M571.988,317.102l12.553,7.233c.322.186.578.035.578-.336c0-.37-.261-.817-.578-1.002l-12.553-7.234c-.322-.185-.578-.035-.578.336s.261.817.578,1.003Z" fill="#fff"/></g><g opacity="0.8"><path d="M599.492,340.753l5.237,3.018c.321.185.578.035.578-.336s-.262-.817-.578-1.003l-5.237-3.017c-.322-.186-.578-.035-.578.335c0,.371.261.818.578,1.003Z" fill="#fff"/><path d="M591.242,335.995l5.237,3.018c.321.186.577.035.577-.336s-.261-.817-.577-1.002l-5.237-3.018c-.322-.186-.578-.035-.578.336s.261.817.578,1.002Z" fill="#fff"/><path d="M571.988,324.902l12.553,7.233c.322.186.578.035.578-.335c0-.371-.261-.818-.578-1.003l-12.553-7.234c-.322-.185-.578-.035-.578.336s.261.817.578,1.003Z" fill="#fff"/></g></g><g style="mix-blend-mode:multiply"><path d="M660.833,337.399l-48.026,27.682-48.026-27.953v-2.146l48.026,27.527l48.026-27.527v2.417Z" fill="#e8edfa"/></g><path d="M611.311,220.766l21.974,12.668c.518.3.452.822-.145,1.168-.598.346-1.507.381-2.024.085l-21.974-12.668c-.517-.301-.452-.822.146-1.168.597-.346,1.506-.381,2.023-.085Z" fill="#dee6ff"/><path d="M607.175,223.152l21.974,12.668c.517.301.452.822-.146,1.168-.597.346-1.506.381-2.024.086l-21.974-12.668c-.517-.301-.452-.823.146-1.169.597-.345,1.506-.38,2.024-.085Z" fill="#dee6ff"/><path d="M603.036,225.538l21.974,12.668c.517.301.452.822-.146,1.168-.597.346-1.506.381-2.023.085l-21.974-12.668c-.518-.301-.452-.822.145-1.168.598-.346,1.507-.381,2.024-.085Z" fill="#dee6ff"/><path d="M598.893,227.924l21.974,12.668c.518.301.452.822-.145,1.168-.598.346-1.507.381-2.024.085l-21.974-12.668c-.517-.301-.452-.822.146-1.168.597-.346,1.506-.381,2.023-.085Z" fill="#dee6ff"/><path d="M544.663,182.351l21.974,12.668c.517.3.452.822-.146,1.168-.597.345-1.506.381-2.023.085l-21.975-12.668c-.517-.301-.451-.822.146-1.168.598-.346,1.507-.381,2.024-.085Z" fill="#dee6ff"/><path d="M540.526,184.737L562.5,197.405c.518.301.452.822-.145,1.168-.598.346-1.507.381-2.024.086l-21.974-12.668c-.517-.301-.452-.823.145-1.169.598-.345,1.507-.381,2.024-.085Z" fill="#dee6ff"/><path d="M536.387,187.123l21.975,12.668c.517.301.452.822-.146,1.168s-1.506.381-2.024.085l-21.974-12.668c-.517-.301-.452-.822.146-1.168.597-.346,1.506-.381,2.023-.085Z" fill="#dee6ff"/><path d="M532.245,189.509l21.974,12.668c.517.301.452.822-.146,1.168-.597.346-1.506.381-2.023.085l-21.974-12.668c-.518-.301-.452-.822.145-1.168.598-.346,1.507-.381,2.024-.085Z" fill="#dee6ff"/><path d="M478.069,143.956l21.974,12.668c.517.301.452.822-.145,1.168-.598.346-1.507.381-2.024.085L475.9,145.209c-.517-.301-.452-.822.145-1.168.598-.346,1.507-.381,2.024-.085Z" fill="#dee6ff"/><path d="M473.932,146.343l21.975,12.668c.517.301.451.822-.146,1.168-.598.346-1.507.381-2.024.085l-21.974-12.668c-.517-.301-.452-.822.146-1.168.597-.346,1.506-.381,2.023-.085Z" fill="#dee6ff"/><path d="M469.794,148.728l21.974,12.668c.517.301.452.823-.146,1.169-.597.345-1.506.381-2.023.085l-21.975-12.668c-.517-.301-.452-.822.146-1.168s1.506-.381,2.024-.086Z" fill="#dee6ff"/><path d="M465.651,151.109l21.974,12.668c.517.301.452.822-.145,1.168-.598.346-1.507.381-2.024.086l-21.974-12.668c-.517-.301-.452-.823.145-1.168.598-.346,1.507-.381,2.024-.086Z" fill="#dee6ff"/><path d="M645.528,275.253l-14.683,8.462c-1.21.696-2.195-.046-2.195-1.655c0-1.614.985-3.489,2.195-4.186l14.683-8.462c1.21-.697,2.194.045,2.194,1.655c0,1.614-.984,3.489-2.194,4.186Z" fill="url(#eng7krmS51K239-fill)"/><path d="M343.925,390.829c-.125,0-.241-.065-.306-.175-.1-.171-.04-.386.131-.487l132.799-76.544c.171-.1.387-.04.487.13.1.171.04.386-.131.486L344.106,390.784c-.055.03-.115.05-.176.05l-.005-.005Z" fill="#ebf3f8"/><path d="M371.673,406.856c-.125,0-.241-.065-.306-.175-.1-.171-.04-.386.131-.487L504.297,329.65c.171-.095.387-.04.487.13.1.171.04.386-.131.487L371.854,406.811c-.055.03-.115.05-.176.05l-.005-.005Z" fill="#ebf3f8"/><path d="M399.418,422.882c-.126,0-.241-.065-.307-.176-.1-.17-.04-.386.131-.486l132.799-76.544c.171-.101.387-.04.487.13.101.17.04.386-.13.486l-132.8,76.545c-.055.03-.115.05-.175.05l-.005-.005Z" fill="#ebf3f8"/><path d="M399.418,422.882c-.06,0-.121-.015-.176-.05L228.304,324.14c-.17-.101-.231-.316-.13-.487.1-.17.316-.225.487-.13l170.938,98.692c.17.1.231.316.13.486-.065.116-.186.176-.306.176l-.005.005Z" fill="#ebf3f8"/><path d="M370.258,496.775c-14.884,0-28.969-3.264-39.173-9.144l-71.346-41.122c-11.238-6.477-16.998-15.681-15.803-25.256c1.11-8.908,7.989-17.425,19.363-23.988l64.231-37.021c11.328-6.527,26.001-10.472,41.322-11.109c16.415-.682,32.233,2.622,43.401,9.054l71.346,41.122c11.238,6.477,16.997,15.681,15.802,25.256-1.109,8.908-7.989,17.43-19.363,23.987l-64.23,37.022c-11.329,6.527-26.001,10.472-41.322,11.109-1.416.06-2.822.085-4.228.085v.005Zm2.817-147.008c-1.396,0-2.797.03-4.203.085-15.205.627-29.763,4.542-40.996,11.014l-64.23,37.021c-11.178,6.442-17.932,14.774-19.012,23.456-1.155,9.274,4.479,18.228,15.456,24.554l71.346,41.122c11.048,6.367,26.735,9.635,43.015,8.964c15.205-.627,29.762-4.542,40.995-11.014l64.231-37.021c11.178-6.442,17.932-14.774,19.011-23.457c1.155-9.274-4.479-18.222-15.456-24.554l-71.346-41.122c-10.098-5.82-24.053-9.048-38.811-9.048Z" fill="#ebf3f8"/><g style="mix-blend-mode:multiply" opacity="0.3"><path d="M348.659,477.299l-71.346-41.122c-12.704-7.324-11.112-20.117,3.561-28.574l64.225-37.022c14.673-8.457,36.868-9.374,49.573-2.05l71.345,41.122c12.705,7.324,11.113,20.118-3.56,28.575l-64.225,37.021c-14.673,8.457-36.868,9.374-49.573,2.05Z" fill="#dfe2f5"/></g><path d="M474.564,406.414c.035-.506.035-1.012,0-1.514v-70.318h-205.828v71.922h.041c-.362,4.958,2.43,9.741,8.536,13.26l71.346,41.122c12.704,7.324,34.9,6.407,49.572-2.05l64.231-37.022c7.622-4.391,11.705-9.956,12.097-15.315h.01v-.09l-.005.005Z" fill="#dee6ff"/><g style="mix-blend-mode:multiply"><path d="M474.563,402.995h-.01c-.392,5.359-4.474,10.919-12.097,15.315l-64.23,37.021c-14.673,8.458-36.868,9.375-49.573,2.051L277.307,416.26c-6.106-3.52-8.903-8.302-8.536-13.26h-.041v3.509h.041c-.362,4.958,2.43,9.741,8.536,13.26l71.346,41.122c12.705,7.324,34.9,6.407,49.573-2.05l64.23-37.022c7.623-4.391,11.705-9.956,12.097-15.315h.01v-.09c.035-.506.035-1.013,0-1.514v-1.905Z" fill="#e8edfa"/></g><path d="M348.659,388.026l-71.346-41.122c-12.704-7.324-11.112-20.118,3.561-28.575l64.23-37.021c14.673-8.457,36.868-9.375,49.573-2.051l71.345,41.123c12.705,7.324,11.113,20.117-3.56,28.574l-64.23,37.022c-14.673,8.457-36.868,9.374-49.573,2.05Z" fill="#fff"/><path d="M286.005,341.891c-7.889-4.547-6.292-12.868,3.56-18.548l64.226-37.021c9.852-5.68,24.289-6.598,32.178-2.051l71.345,41.122c7.889,4.547,6.292,12.869-3.56,18.549l-64.225,37.021c-9.852,5.68-24.289,6.597-32.178,2.051l-71.346-41.123Z" fill="url(#eng7krmS51K251-fill)"/><g opacity="0.8"><path id="eng7krmS51K253" d="M370.649,299.225l-7.883-4.546l7.883-4.542l7.884,4.542-7.884,4.546Z" fill="#fff"/><path id="eng7krmS51K254" d="M382.524,306.068l-7.883-4.542l7.883-4.546l7.884,4.546-7.884,4.542Z" fill="#fff"/><path id="eng7krmS51K255" d="M394.401,312.911l-7.883-4.542l7.883-4.542l7.884,4.542-7.884,4.542Z" fill="#fff"/><path d="M406.278,319.759l-7.883-4.542l7.883-4.547l7.884,4.547-7.884,4.542Z" fill="#fff"/><path id="eng7krmS51K257" d="M418.153,326.601l-7.883-4.542l7.883-4.541l7.884,4.541-7.884,4.542Z" fill="#fff"/><path d="M430.028,333.45l-7.883-4.542l7.883-4.547l7.884,4.547-7.884,4.542Z" fill="#fff"/><path id="eng7krmS51K259" d="M441.905,340.293l-7.884-4.542l7.884-4.542l7.884,4.542-7.884,4.542Z" fill="#fff"/><path d="M357.808,306.625l-7.884-4.547l7.884-4.542l7.883,4.542-7.883,4.547Z" fill="#fff"/><path d="M369.683,313.468l-7.884-4.542l7.884-4.547l7.883,4.547-7.883,4.542Z" fill="#fff"/><path id="eng7krmS51K262" d="M381.56,320.315l-7.884-4.547l7.884-4.542l7.883,4.542-7.883,4.547Z" fill="#fff"/><path id="eng7krmS51K263" d="M393.435,327.158l-7.884-4.542l7.884-4.547l7.883,4.547-7.883,4.542Z" fill="#fff"/><path d="M405.312,334.007l-7.884-4.547l7.884-4.542l7.883,4.542-7.883,4.547Z" fill="#fff"/><path id="eng7krmS51K265" d="M417.188,340.848l-7.883-4.542l7.883-4.546l7.884,4.546-7.884,4.542Z" fill="#fff"/><path d="M429.062,347.697l-7.878-4.547l7.878-4.542l7.884,4.542-7.884,4.547Z" fill="#fff"/><path id="eng7krmS51K267" d="M344.97,314.024l-7.884-4.542l7.884-4.546l7.884,4.546-7.884,4.542Z" fill="#fff"/><path id="eng7krmS51K268" d="M356.845,320.867l-7.884-4.542l7.884-4.542l7.884,4.542-7.884,4.542Z" fill="#fff"/><path d="M368.722,327.715l-7.884-4.542l7.884-4.547l7.883,4.547-7.883,4.542Z" fill="#fff"/><path d="M380.599,334.557l-7.884-4.542l7.884-4.541l7.883,4.541-7.883,4.542Z" fill="#fff"/><path id="eng7krmS51K271" d="M392.474,341.405l-7.884-4.542l7.884-4.547l7.883,4.547-7.883,4.542Z" fill="#fff"/><path d="M404.349,348.249l-7.878-4.542l7.878-4.542l7.884,4.542-7.884,4.542Z" fill="#fff"/><path d="M416.231,355.097l-7.883-4.547l7.883-4.542l7.879,4.547-7.879,4.542Z" fill="#fff"/><path d="M332.128,321.423l-7.884-4.542l7.884-4.547l7.884,4.547-7.884,4.542Z" fill="#fff"/><path id="eng7krmS51K275" d="M344.003,328.271l-7.884-4.547l7.884-4.542l7.884,4.542-7.884,4.547Z" fill="#fff"/><path id="eng7krmS51K276" d="M355.88,335.113l-7.884-4.542l7.884-4.547l7.884,4.547-7.884,4.542Z" fill="#fff"/><path id="eng7krmS51K277" d="M367.755,341.961l-7.884-4.547l7.884-4.542l7.884,4.542-7.884,4.547Z" fill="#fff"/><path id="eng7krmS51K278" d="M379.633,348.805l-7.879-4.542l7.879-4.547l7.883,4.547-7.883,4.542Z" fill="#fff"/><path id="eng7krmS51K279" d="M391.513,355.652l-7.884-4.547l7.884-4.542l7.878,4.542-7.878,4.547Z" fill="#fff"/><path id="eng7krmS51K280" d="M403.388,362.495l-7.884-4.542l7.884-4.547l7.878,4.547-7.878,4.542Z" fill="#fff"/><path d="M319.288,328.823l-7.884-4.542l7.884-4.542l7.884,4.542-7.884,4.542Z" fill="#fff"/><path d="M331.163,335.671l-7.884-4.542l7.884-4.547l7.884,4.547-7.884,4.542Z" fill="#fff"/><path id="eng7krmS51K283" d="M343.04,342.513l-7.884-4.541l7.884-4.542l7.884,4.542-7.884,4.541Z" fill="#fff"/><path d="M354.916,349.361l-7.879-4.542l7.879-4.547l7.884,4.547-7.884,4.542Z" fill="#fff"/><path id="eng7krmS51K285" d="M366.793,356.205l-7.879-4.542l7.879-4.542l7.884,4.542-7.884,4.542Z" fill="#fff"/><path id="eng7krmS51K286" d="M378.673,363.053l-7.884-4.542l7.884-4.547l7.879,4.547-7.879,4.542Z" fill="#fff"/><path d="M390.548,369.895l-7.884-4.542l7.884-4.541l7.884,4.541-7.884,4.542Z" fill="#fff"/><path id="eng7krmS51K288" d="M306.448,336.226l-7.884-4.546l7.884-4.542l7.884,4.542-7.884,4.546Z" fill="#fff"/><path d="M318.323,343.069l-7.884-4.542l7.884-4.546l7.884,4.546-7.884,4.542Z" fill="#fff"/><path id="eng7krmS51K290" d="M330.2,349.917l-7.884-4.547l7.884-4.542l7.884,4.542-7.884,4.547Z" fill="#fff"/><path id="eng7krmS51K291" d="M342.076,356.76l-7.879-4.542l7.879-4.547l7.884,4.547-7.884,4.542Z" fill="#fff"/><path id="eng7krmS51K292" d="M353.958,363.608l-7.884-4.547l7.884-4.541l7.879,4.541-7.879,4.547Z" fill="#fff"/><path id="eng7krmS51K293" d="M365.833,370.451l-7.884-4.542l7.884-4.547l7.884,4.547-7.884,4.542Z" fill="#fff"/><path d="M377.708,377.299l-7.884-4.547l7.884-4.542l7.884,4.542-7.884,4.547Z" fill="#fff"/></g><g style="mix-blend-mode:multiply"><path d="M474.565,368.676h-.01c-.392,5.359-4.474,10.918-12.097,15.315l-64.23,37.021c-14.673,8.457-36.869,9.375-49.573,2.051l-71.346-41.122c-6.106-3.52-8.903-8.302-8.536-13.26h-.041v3.735h.041c-.362,4.958,2.43,9.74,8.536,13.259l71.346,41.122c12.704,7.325,34.9,6.407,49.573-2.05l64.23-37.021c7.623-4.392,11.705-9.956,12.097-15.315h.01v-.091c.035-.506.035-1.012,0-1.513v-2.131Z" fill="#e8edfa"/></g><path id="eng7krmS51K297" d="M460.653,368.195c0,2.386-1.678,5.289-3.752,6.482-2.068,1.193-3.751.226-3.751-2.161c0-2.386,1.678-5.288,3.751-6.482c2.069-1.193,3.752-.225,3.752,2.161Z" fill="#fff"/><path id="eng7krmS51K298" d="M447.513,378.825c1.465-2.532,1.464-5.269-.001-6.114-1.465-.844-3.84.524-5.304,3.056s-1.464,5.269.001,6.114c1.465.844,3.84-.524,5.304-3.056Z" fill="#fff"/><path id="eng7krmS51K299" d="M436.565,382.076c0,2.386-1.678,5.289-3.751,6.482-2.069,1.193-3.752.225-3.752-2.161s1.678-5.289,3.752-6.482c2.068-1.193,3.751-.225,3.751,2.161Z" fill="#fff"/><path id="eng7krmS51K300" d="M459.555,408.245c1.464-2.532,1.463-5.269-.002-6.114-1.465-.844-3.84.524-5.304,3.056s-1.464,5.269.001,6.113c1.465.845,3.84-.523,5.305-3.055Z" fill="#fff"/><path id="eng7krmS51K301" d="M448.608,411.498c0,2.386-1.678,5.289-3.751,6.482-2.074,1.193-3.752.225-3.752-2.161s1.678-5.289,3.752-6.482c2.068-1.193,3.751-.225,3.751,2.161Z" fill="#fff"/><path id="eng7krmS51K302" d="M436.565,418.44c0,2.386-1.678,5.289-3.751,6.482-2.069,1.193-3.752.226-3.752-2.161c0-2.386,1.678-5.288,3.752-6.481c2.068-1.194,3.751-.226,3.751,2.16Z" fill="#fff"/><path d="M458.847,369.368c0,1.233-.868,2.737-1.938,3.354-1.07.616-1.938.115-1.938-1.118s.868-2.737,1.938-3.354c1.07-.616,1.938-.115,1.938,1.118Z" fill="#ebf3f8"/><path d="M446.8,412.54c0,1.233-.868,2.737-1.938,3.354-1.069.616-1.938.115-1.938-1.118s.869-2.737,1.938-3.354c1.07-.617,1.938-.115,1.938,1.118Z" fill="#ebf3f8"/><g style="mix-blend-mode:multiply"><path d="M331.947,408.098l-2.295-1.318v-22.464l2.295,1.324v22.458Z" fill="#e8edfa"/></g><g style="mix-blend-mode:multiply"><path d="M326.193,404.74l-2.295-1.318v-22.464l2.295,1.323v22.459Z" fill="#e8edfa"/></g><g style="mix-blend-mode:multiply"><path d="M320.434,401.387l-2.289-1.324v-22.463l2.289,1.323v22.464Z" fill="#e8edfa"/></g><g style="mix-blend-mode:multiply"><path d="M314.678,398.027l-2.289-1.323v-22.464l2.289,1.324v22.463Z" fill="#e8edfa"/></g><g style="mix-blend-mode:multiply"><path d="M308.923,394.669l-2.29-1.324v-22.463l2.29,1.323v22.464Z" fill="#e8edfa"/></g><g style="mix-blend-mode:multiply"><path d="M331.947,443.937l-2.295-1.323v-22.464l2.295,1.324v22.463Z" fill="#e8edfa"/></g><g style="mix-blend-mode:multiply"><path d="M326.193,440.578l-2.295-1.323v-22.464l2.295,1.323v22.464Z" fill="#e8edfa"/></g><g style="mix-blend-mode:multiply"><path d="M320.432,437.22l-2.289-1.324v-22.463l2.289,1.323v22.464Z" fill="#e8edfa"/></g><g style="mix-blend-mode:multiply"><path d="M314.678,433.861l-2.289-1.323v-22.459l2.289,1.319v22.463Z" fill="#e8edfa"/></g><g style="mix-blend-mode:multiply"><path d="M308.923,430.503l-2.29-1.319v-22.463l2.29,1.318v22.464Z" fill="#e8edfa"/></g><g id="eng7krmS51K325" transform="translate(0 0.000001)"><path id="eng7krmS51K326" d="M389.014,100.718L368.722,85.4327L348.43,100.718v-8.272l20.292-15.2849L389.014,92.446v8.272Z" opacity="0" fill="#fff"/><path id="eng7krmS51K327" d="M389.014,117.817l-20.292-15.285-20.292,15.285v-8.271l20.292-15.2853l20.292,15.2853v8.271Z" opacity="0" fill="#fff"/><path id="eng7krmS51K328" d="M389.014,134.917l-20.292-15.29-20.292,15.29v-8.277l20.292-15.285l20.292,15.285v8.277Z" opacity="0" fill="#fff"/><path id="eng7krmS51K329" d="M389.014,152.011l-20.292-15.284-20.292,15.284v-8.271l20.292-15.285l20.292,15.285v8.271Z" opacity="0" fill="#fff"/><path id="eng7krmS51K330" d="M389.014,169.111l-20.292-15.285-20.292,15.285v-8.276l20.292-15.285l20.292,15.285v8.276Z" opacity="0" fill="#fff"/><path id="eng7krmS51K331" d="M389.014,186.206l-20.292-15.285-20.292,15.285v-8.272l20.292-15.285l20.292,15.285v8.272Z" opacity="0" fill="#fff"/><path id="eng7krmS51K332" d="M389.014,203.305L368.722,188.02L348.43,203.305v-8.277l20.292-15.285l20.292,15.285v8.277Z" opacity="0" fill="#fff"/><path id="eng7krmS51K333" d="M389.014,220.399l-20.292-15.285-20.292,15.285v-8.271l20.292-15.285l20.292,15.285v8.271Z" opacity="0" fill="#fff"/><path id="eng7krmS51K334" d="M389.014,237.499l-20.292-15.285-20.292,15.285v-8.277l20.292-15.284l20.292,15.284v8.277Z" opacity="0" fill="#fff"/></g><g id="eng7krmS51K335" transform="translate(.000001 0.000001)"><path id="eng7krmS51K336" d="M434.13,29.7427l-15.265-11.5-15.265,11.5v-6.2263l15.265-11.4949L434.13,23.5164v6.2263Z" transform="translate(0-.414162)" opacity="0" fill="#fff"/><path id="eng7krmS51K337" d="M434.13,42.6012l-15.265-11.495L403.6,42.6012v-6.2212l15.265-11.5l15.265,11.5v6.2212Z" opacity="0" fill="#fff"/><path id="eng7krmS51K338" d="M434.13,55.4643L418.865,43.9644L403.6,55.4643v-6.2262l15.265-11.4949L434.13,49.2381v6.2262Z" opacity="0" fill="#fff"/><path id="eng7krmS51K339" d="M434.13,68.3227L418.865,56.8278L403.6,68.3227v-6.2212l15.265-11.4999L434.13,62.1015v6.2212Z" opacity="0" fill="#fff"/><path id="eng7krmS51K340" d="M434.13,81.187l-15.265-11.5-15.265,11.5v-6.2262l15.265-11.495l15.265,11.495v6.2262Z" opacity="0" fill="#fff"/><path id="eng7krmS51K341" d="M434.13,94.0453l-15.265-11.495L403.6,94.0453v-6.2213l15.265-11.4999L434.13,87.824v6.2213Z" opacity="0" fill="#fff"/><path id="eng7krmS51K342" d="M434.13,106.909L418.865,95.4088L403.6,106.909v-6.226l15.265-11.4954L434.13,100.683v6.226Z" opacity="0" fill="#fff"/><path id="eng7krmS51K343" d="M434.13,119.767l-15.265-11.495L403.6,119.767v-6.221l15.265-11.5l15.265,11.5v6.221Z" opacity="0" fill="#fff"/><path id="eng7krmS51K344" d="M434.13,132.63l-15.265-11.5-15.265,11.5v-6.226l15.265-11.495l15.265,11.495v6.226Z" opacity="0" fill="#fff"/></g><g id="eng7krmS51K345" transform="translate(.000001 0.000001)"><path id="eng7krmS51K346" d="M333.062,66.8589L319.057,56.3114l-14,10.5475v-5.7099l14-10.5474L333.062,61.149v5.7099Z" opacity="0" fill="#fff"/><path id="eng7krmS51K347" d="M333.062,78.6547L319.057,68.1072l-14,10.5475v-5.7099l14-10.5425l14.005,10.5425v5.7099Z" opacity="0" fill="#fff"/><path id="eng7krmS51K348" d="M333.062,90.4504L319.057,79.9029l-14,10.5475v-5.7099l14-10.5424l14.005,10.5424v5.7099Z" opacity="0" fill="#fff"/><path id="eng7krmS51K349" d="M333.062,102.247L319.057,91.699l-14,10.548v-5.7054l14-10.5475l14.005,10.5475v5.7054Z" opacity="0" fill="#fff"/><path id="eng7krmS51K350" d="M333.062,114.041l-14.005-10.542-14,10.542v-5.704l14-10.5479l14.005,10.5479v5.704Z" opacity="0" fill="#fff"/><path id="eng7krmS51K351" d="M333.062,125.842l-14.005-10.547-14,10.547v-5.71l14-10.547l14.005,10.547v5.71Z" opacity="0" fill="#fff"/><path id="eng7krmS51K352" d="M333.062,137.638l-14.005-10.547-14,10.547v-5.709l14-10.548l14.005,10.548v5.709Z" opacity="0" fill="#fff"/><path id="eng7krmS51K353" d="M333.062,149.434l-14.005-10.547-14,10.547v-5.71l14-10.542l14.005,10.542v5.71Z" opacity="0" fill="#fff"/><path id="eng7krmS51K354" d="M333.062,161.23l-14.005-10.548-14,10.548v-5.71l14-10.542l14.005,10.542v5.71Z" opacity="0" fill="#fff"/></g><g id="eng7krmS51K355_to" style="offset-path:path('M300.337,233.735587C304.680198,236.182281,303.274393,235.214569,308.923,238.341C315.922711,242.361,323.279,248.789001,323.279002,258.582092C323.26579,265.770893,320.434,269.668,311.281001,275.694L228.661,323.814L274.81,350.55');offset-rotate:0deg"><ellipse id="eng7krmS51K355" rx="3.543931" ry="2.259503" transform="translate(0,0)" opacity="0" fill="#fff" stroke-width="0"/></g><g id="eng7krmS51K356_to" style="offset-path:path('M66.113803,326.582003C59.865032,330.996414,54.005251,334.632002,54.005251,344.2605C54.005251,353.622,60.0938,358.5085,68.502454,364.627001L79.956554,371.206668C92.459879,377.29599,100.205502,378.923,114.692003,379.408938C129.03235,378.825,134.988837,378.12821,145.116253,372.205001L228.661001,323.814L276.178906,351.14');offset-rotate:0deg"><ellipse id="eng7krmS51K356" rx="3.543931" ry="2.259503" transform="translate(0,0)" fill="#fff" stroke-width="0"/></g><g id="eng7krmS51K357_to" style="offset-path:path('M463.303,385.64L532.041,345.806L596.376648,382.7755C605.991079,387.726,615.439086,388.026,623.517,383.826L643.463,372.32');offset-rotate:0deg"><ellipse id="eng7krmS51K357" rx="2.502716" ry="2.65545" transform="scale(1.433485,1.433485) translate(0,0)" opacity="0" fill="#fff" stroke-width="0"/></g><g id="eng7krmS51K358_to" style="offset-path:path('M464.440004,353.131L504.297004,329.875L596.870004,383.014C608.05484,389.064056,617.077027,388.026,625.357365,383.014L675.560003,353.964C682.18845,350.55,682.081695,343.1525,675.560002,339.336121L658.208001,329.65');offset-rotate:0deg"><g id="eng7krmS51K358_ts" transform="scale(1.556781,1.556781)"><ellipse id="eng7krmS51K358" rx="2.097486" ry="1.9945" transform="translate(0,0)" opacity="0" fill="#fff" stroke-width="0"/></g></g><g id="eng7krmS51K359_to" style="offset-path:path('M459.553,324.436002L477.084442,313.753002L411.689,276.344992C405.312,273.183,404.352,266.487228,411.266,262.502413L434.021,249.402497');offset-rotate:0deg"><ellipse id="eng7krmS51K359" rx="4.113526" ry="3.932497" transform="scale(0.8,0.8) translate(0,0)" opacity="0" fill="#fff" stroke-width="0"/></g><g id="eng7krmS51K360_to" style="offset-path:path('M645.822814,372.682L645.356001,298.247C645.356001,291.58,642.192,285.118,636.472,281.315125L633.31,279.540985');offset-rotate:0deg"><ellipse id="eng7krmS51K360" rx="2.541555" ry="2.014373" transform="scale(0.843694,1.000001) translate(0,0)" opacity="0" fill="#fff" stroke-width="0"/></g><g transform="translate(.000001 0)"><path d="M659.854,362.275l-14.683,8.462c-1.211.697-3.33.612-4.731-.195-.773-.447-1.165-1.018-1.155-1.56v3.7c0,.537.392,1.098,1.155,1.539c1.401.807,3.515.892,4.731.196l14.683-8.462c.577-.336.843-.787.813-1.259v-3.534c-.025.416-.296.812-.813,1.113Z" fill="url(#eng7krmS51K362-fill)"/><path d="M645.17,370.737l14.683-8.462c1.21-.697,1.06-1.92-.341-2.728-1.401-.807-3.515-.892-4.731-.195l-14.683,8.462c-1.21.697-1.059,1.92.342,2.727s3.515.892,4.73.196Z" fill="#fff"/><path d="M641.747,369.789c-.668-.386-.824-.942-.342-1.223l14.683-8.462c.482-.276,1.452-.191,2.12.195.667.386.823.943.341,1.224l-14.683,8.462c-.482.275-1.451.19-2.119-.196Z" fill="url(#eng7krmS51K364-fill)"/></g><g transform="translate(0 0.000001)"><path d="M645.352,367.914c-.367,0-.663-.296-.663-.662v-70.253c0-5.61-3.957-12.452-8.823-15.26l-2.556-1.474c-.316-.18-.427-.586-.241-.902.181-.316.587-.426.904-.241l2.556,1.474c5.232,3.013,9.485,10.372,9.485,16.403v70.253c0,.366-.296.662-.662.662Z" fill="#a3b5e8"/><path d="M648.514,366.079c-.367,0-.663-.296-.663-.662v-70.253c0-5.61-3.957-12.452-8.823-15.26l-2.556-1.474c-.316-.18-.427-.586-.241-.902.181-.316.588-.426.904-.24l2.556,1.473c5.232,3.013,9.486,10.372,9.486,16.403v70.253c0,.366-.297.662-.663.662Z" fill="#a3b5e8"/><path d="M651.678,364.245c-.367,0-.663-.296-.663-.662v-70.253c0-5.609-3.957-12.452-8.823-15.26l-2.556-1.473c-.316-.181-.427-.587-.241-.903s.588-.426.904-.24l2.556,1.473c5.232,3.013,9.486,10.372,9.486,16.403v70.253c0,.366-.297.662-.663.662Z" fill="#a3b5e8"/><path d="M654.842,362.415c-.367,0-.663-.296-.663-.662v-70.253c0-5.61-3.957-12.452-8.823-15.26l-2.556-1.474c-.316-.18-.427-.586-.241-.902s.588-.426.904-.241l2.556,1.474c5.232,3.013,9.486,10.372,9.486,16.403v70.253c0,.366-.297.662-.663.662Z" fill="#a3b5e8"/></g></svg>
